<?xml version="1.0" standalone="no"?>
<!DOCTYPE svg PUBLIC "-//W3C//DTD SVG 1.1//EN" "http://www.w3.org/Graphics/SVG/1.1/DTD/svg11.dtd" >
<svg xmlns="http://www.w3.org/2000/svg">
<metadata>Generated by IcoMoon</metadata>
<defs>
<font id="icomoon" horiz-adv-x="1024">
<font-face units-per-em="1024" ascent="960" descent="-64" />
<missing-glyph horiz-adv-x="1024" />
<glyph unicode="&#x20;" d="" horiz-adv-x="512" />
<glyph unicode="&#xe600;" d="M936.789 728.985c-36.591 66.594-88.405 117.999-155.409 154.214s-143.497 54.34-229.513 54.34c-102.4 0-193.195-22.289-272.384-66.935-79.189-44.612-140.186-107.486-182.989-188.689s-64.205-173.773-64.205-277.811c0-143.189 40.107-254.669 120.286-334.507 80.213-79.804 192.887-119.671 338.091-119.671 97.587 0 184.798 16.759 261.598 50.415v79.77c-90.385-34.406-177.596-51.61-261.598-51.61-121.207 0-214.016 32.836-278.391 98.406-64.41 65.638-96.597 159.369-96.597 281.429 0 90.010 17.408 169.267 52.19 237.875s85.197 121.446 151.211 158.413c66.014 37.001 143.599 55.501 232.789 55.501 70.793 0 133.495-14.677 188.109-44.1 54.613-29.355 96.7-71.305 126.293-125.713s44.407-117.794 44.407-190.191c0-68.813-11.401-124.655-34.202-167.697-22.801-42.974-52.395-64.478-88.815-64.478-53.214 0-79.804 35.601-79.804 106.803v13.21l14.985 282.010c-27.614 8.772-58.607 15.667-93.013 20.685-34.406 4.983-65.195 7.475-92.399 7.475-76.8 0-138.786-25.498-185.993-76.459-47.206-50.995-70.793-117.316-70.793-198.929 0-70.417 16.896-126.089 50.688-167.117s80.691-61.474 140.698-61.474c40.789 0 76.083 9.796 105.916 29.389s52.702 46.797 68.71 81.579h4.813c4.403-32.393 18.398-59.017 41.984-79.77 23.586-20.787 52.599-31.198 87.006-31.198 41.609 0 78.404 13.005 110.387 39.014 32.017 25.975 56.798 62.601 74.411 109.807 17.613 47.172 26.385 99.191 26.385 155.955 0.068 86.801-18.227 163.499-54.852 230.059zM415.403 570.334c29.389 35.977 70.11 53.965 122.095 53.965 33.997 0 65.399-3.959 94.208-11.981l-8.397-156.638c-7.202-125.167-52.19-187.767-134.997-187.767-77.995 0-117.009 50.756-117.009 152.405 0 64 14.711 114.005 44.1 150.016z" />
<glyph unicode="&#xe601;" d="M614.332 68.335c1.809 0 0 3.584-0.068 5.359-2.253 91.785-28.365 165.308-102.332 165.308-74.001 0-100.113-73.523-102.332-165.342-0.068-1.775-1.843-5.325-0.068-5.325h-409.6v375.501l238.933 375.467h68.267l68.267-170.701-68.267-34.133-38.537 115.644-176.503-286.276h839.68l-176.503 286.276-38.537-115.644-68.267 34.133 68.267 170.701h68.267l238.933-375.467v-375.501h-409.6zM955.665 375.535h-887.467v-238.899h281.6c0 0 8.192 170.667 162.133 170.667 156.433 0 161.075-170.667 161.075-170.667v0h282.658v238.899z" />
<glyph unicode="&#xe602;" d="M546.065 68.335v-68.267h170.667v-68.267h-409.6v68.267h170.667v68.267h-477.867v682.667h192l8.533-68.267h-132.267v-546.099h887.467v546.099h-38.4l29.867 68.267h76.8v-682.667h-477.867zM870.332 751.001l-29.867-68.267h-0.341l-157.525-341.333-375.467 102.434-31.881 238.899h-0.102l-8.533 68.267h-0.444l-27.307 204.8 648.533-170.667-15.77-34.133h-1.297zM375.398 512.068l273.067-68.233 49.596 115.029-339.456 83.866 16.794-130.662zM331.503 853.401l17.783-138.138 376.183-92.911 44.919 104.277-438.886 126.771z" />
<glyph unicode="&#xe603;" d="M0-68.267v1023.966h1024v-1023.966h-1024zM955.733 887.466h-887.467v-136.533h887.467v136.533zM955.733 682.666h-887.467v-682.701h887.467v682.701zM477.867 546.133h68.267v-170.701h170.667v-68.267h-170.667v-170.667h-68.267v170.667h-170.667v68.267h170.667v170.701zM136.533 853.333c18.842 0 34.133-15.292 34.133-34.167 0-18.807-15.292-34.099-34.133-34.099-18.876 0-34.133 15.292-34.133 34.099 0 18.876 15.258 34.167 34.133 34.167zM238.933 853.333c18.842 0 34.133-15.292 34.133-34.167 0-18.807-15.292-34.099-34.133-34.099-18.876 0-34.133 15.292-34.133 34.099 0 18.876 15.258 34.167 34.133 34.167zM341.333 853.333c18.842 0 34.133-15.292 34.133-34.167 0-18.807-15.292-34.099-34.133-34.099-18.876 0-34.133 15.292-34.133 34.099 0 18.876 15.258 34.167 34.133 34.167z" />
<glyph unicode="&#xe604;" d="M0-68.267v1024h1024v-1024h-1024zM955.733 887.466h-887.467v-887.467h887.467v887.467zM477.867 716.868h68.267v-238.933h238.933v-68.233h-238.933v-239.002h-68.267v239.002h-238.933v68.233h238.933v238.933z" />
<glyph unicode="&#xe605;" d="M512-68.267c-282.761 0-512 229.239-512 512.034 0 282.761 229.239 511.966 512 511.966s512-229.205 512-511.966c0-282.795-229.239-512.034-512-512.034zM512 887.466c-245.077 0-443.733-198.656-443.733-443.699 0-245.077 198.656-443.767 443.733-443.767s443.733 198.69 443.733 443.767c0 245.043-198.656 443.699-443.733 443.699zM546.133 170.666h-68.267v238.967h-238.933v68.233h238.933v238.933h68.267v-238.933h238.933v-68.233h-238.933v-238.967z" />
<glyph unicode="&#xe606;" d="M0-68.267v887.398h170.667v136.567h68.267v-136.567h136.533v136.567h68.267v-136.567h136.533v136.567h68.267v-136.567h136.533v136.567h68.267v-136.567h170.667v-887.398h-1024zM955.733 750.899h-887.467v-204.8h887.467v204.8zM955.733 477.832h-887.467v-477.867h887.467v477.867zM477.867 375.432h68.267v-102.4h102.4v-68.267h-102.4v-102.366h-68.267v102.366h-102.4v68.267h102.4v102.4z" />
<glyph unicode="&#xe607;" d="M750.933 34.133c-150.801 0-273.067 122.231-273.067 273.067 0 101.001 54.989 188.996 136.533 236.237v173.363h68.267v-145.51c21.879 5.632 44.646 8.977 68.267 8.977 23.586 0 46.387-3.345 68.267-8.977v282.044h68.267v-309.897c81.545-47.241 136.533-135.236 136.533-236.237 0-150.835-122.266-273.067-273.067-273.067zM750.933 511.966c-113.084 0-204.8-91.682-204.8-204.766 0-113.118 91.716-204.834 204.8-204.834s204.8 91.716 204.8 204.834c0 113.084-91.716 204.766-204.8 204.766zM785.067 170.666h-68.267v102.4h-102.4v68.233h102.4v102.434h68.267v-102.434h102.4v-68.233h-102.4v-102.4zM409.6 102.366v477.901h68.267v-477.901h-68.267zM204.8 443.733h68.267v-341.367h-68.267v341.367zM0 307.2h68.267v-204.834h-68.267v204.834z" />
<glyph unicode="&#xe608;" d="M921.6-68.267h-819.2v1024h580.267l238.933-238.933v-785.067zM682.667 869.342v-152.542h152.542l-152.542 152.542zM853.333 648.533h-238.933v238.933h-443.733v-887.501h682.667v648.567zM477.867 580.232h68.267v-136.533h136.533v-68.267h-136.533v-136.465h-68.267v136.465h-136.533v68.267h136.533v136.533z" />
<glyph unicode="&#xe609;" d="M0 0v887.467h375.467l40.96-136.533h607.573v-750.933h-1024zM955.733 682.666h-595.183l-37.342 136.567h-254.942v-750.967h887.467v614.4zM546.133 546.133v-136.533h136.533v-68.267h-136.533v-136.533h-68.267v136.533h-136.533v68.267h136.533v136.533h68.267z" />
<glyph unicode="&#xe60a;" d="M807.458 443.733l-295.458-512.034-295.458 512.034c-29.15 50.244-45.875 108.407-45.875 170.667 0 188.484 152.849 341.333 341.333 341.333s341.333-152.849 341.333-341.333c0-62.259-16.725-120.422-45.875-170.667zM512 887.466c-150.562 0-273.067-127.625-273.067-284.433 0-49.903 12.663-99.055 36.659-142.199l236.407-404.275 236.373 404.241c23.996 43.145 36.693 92.331 36.693 142.234 0 156.809-122.505 284.433-273.067 284.433zM546.133 477.866h-68.267v102.4h-102.4v68.267h102.4v102.366h68.267v-102.366h102.4v-68.267h-102.4v-102.4z" />
<glyph unicode="&#xe60b;" d="M921.566 409.531v-102.4h-68.267v102.4h-102.4v-68.267h68.267v-204.732h-819.2v614.4h819.2v-204.834h-68.267v-68.267h102.4v102.4h68.267v-102.4h102.4v-68.267h-102.4zM750.899 682.666h-682.667v-307.2l170.667 170.667 205.858-184.525 151.484 132.164 154.658-152.439v341.333zM750.899 256l-154.658 154.658-152.542-137.591-204.8 185.617-170.667-174.933v-78.95h682.667v51.2zM443.699 443.733c-37.683 0-68.267 30.583-68.267 68.267 0 37.717 30.583 68.301 68.267 68.301s68.267-30.583 68.267-68.301c0-37.717-30.549-68.267-68.267-68.267z" />
<glyph unicode="&#xe60c;" d="M204.8-72.192v716.834l307.2 315.051 307.2-315.051v-716.834h-614.4zM750.933 610.474l-238.933 252.109-238.933-252.109v-614.366h477.867v614.366zM477.867 337.442h68.267v-102.366h102.4v-68.335h-102.4v-102.366h-68.267v102.366h-102.4v68.335h102.4v102.366zM512.171 507.938c-56.559-0.034-102.4 45.807-102.366 102.366 0.034 56.525 45.943 102.468 102.502 102.468 56.559 0.034 102.366-45.773 102.332-102.366-0.034-56.559-45.909-102.434-102.468-102.468zM512.102 644.369c-18.773 0-33.963-15.189-33.963-33.997-0.034-18.739 15.155-33.894 33.894-33.86 18.773 0 33.963 15.189 33.963 33.929 0.034 18.739-15.155 33.963-33.894 33.929z" />
<glyph unicode="&#xe60d;" d="M956.416 477.832v-546.099h-887.467v546.099h-68.267v68.335h1024v-68.335h-68.267zM888.149 477.832h-750.933v-477.867h750.933v477.867zM478.549 409.566h68.267v-136.499h136.533v-68.267h-136.533v-136.567h-68.267v136.567h-136.533v68.267h136.533v136.499zM565.999 906.683l49.084 49.050 238.933-341.333h-83.968l-204.049 292.284zM171.349 614.4l238.933 341.333 49.084-49.050-202.991-292.284h-85.026z" />
<glyph unicode="&#xe60e;" d="M580.949 341.265v102.4h-102.4v68.267h102.4v102.4h68.267v-102.4h102.4v-68.267h-102.4v-102.4h-68.267zM859.273 204.083l-4.062 1.058-0.137-0.375h-513.058l-195.311 614.4h-146.022v68.267h188.791l198.042-614.366h423.97l120.798 409.532h-597.743l-26.658 68.267h716.8l-165.41-546.782zM410.283 136.533c37.683 0 68.267-30.583 68.267-68.301s-30.583-68.233-68.267-68.233-68.267 30.515-68.267 68.233 30.549 68.301 68.267 68.301zM785.749 136.533c37.683 0 68.267-30.583 68.267-68.301s-30.583-68.233-68.267-68.233-68.267 30.515-68.267 68.233 30.549 68.301 68.267 68.301z" />
<glyph unicode="&#xe60f;" d="M854.016 716.663l170.667 0.102-97.28-273.067h0.205l-24.542-68.267h-538.283l22.733-68.267h493.158l-25.6-68.267h-513.058l-195.345 546.133h-145.988v68.267h204.8l45.5-136.533 125.167-0.102v-68.267l-102.4 0.068 68.267-204.766h512l68.267 204.766-68.267-0.068v68.267zM649.216 511.863h-68.267v136.533h-136.533v68.267h136.533v136.533h68.267v-136.533h136.533v-68.267h-136.533v-136.533zM410.283 170.632c37.683 0 68.267-30.583 68.267-68.267s-30.583-68.233-68.267-68.233-68.267 30.549-68.267 68.233 30.549 68.267 68.267 68.267zM785.749 170.632c37.683 0 68.267-30.583 68.267-68.267s-30.583-68.233-68.267-68.233-68.267 30.549-68.267 68.233 30.549 68.267 68.267 68.267z" />
<glyph unicode="&#xe610;" d="M34.816-68.267l102.4 819.2h139.913c16.691 115.644 115.302 204.8 235.554 204.8s218.761-89.156 235.452-204.8h140.015l102.4-819.2h-955.733zM512.683 887.466c-82.466 0-150.596-58.743-166.502-136.533h333.005c-15.906 77.79-84.036 136.533-166.502 136.533zM836.949 682.666h-645.7l-88.166-682.667h819.2l-85.333 682.667zM666.283 512c-28.262 0-51.2 22.938-51.2 51.234 0 28.262 22.938 51.166 51.2 51.166s51.2-22.903 51.2-51.166c0-28.297-22.938-51.234-51.2-51.234zM683.349 307.2v-68.267h-136.533v-136.533h-68.267v136.533h-136.533v68.267h136.533v136.533h68.267v-136.533h136.533zM359.083 512c-28.262 0-51.2 22.938-51.2 51.234 0 28.262 22.938 51.166 51.2 51.166s51.2-22.903 51.2-51.166c0-28.297-22.938-51.234-51.2-51.234z" />
<glyph unicode="&#xe611;" d="M1024 102.4h-170.667v-170.667h-68.267v170.667h-170.667v68.267h170.667v170.598h68.267v-170.598h170.667v-68.267zM437.623 370.654c65.297-42.667 108.51-116.19 108.51-199.987v-238.933c-27.785 0-50.039 0-68.267 0-123.017 0-55.74 0-170.667 0-12.322 0-23.484 0-34.133 0-64.614 0-101.342 0-136.533 0-21.265 0-42.052 0-68.267 0v238.933c0 83.797 43.213 157.321 108.51 199.987-104.346 49.084-176.777 154.897-176.777 277.879 0 169.643 137.523 307.2 307.2 307.2s307.2-137.557 307.2-307.2c0-122.982-72.397-228.796-176.777-277.879zM136.533 170.666v-170.667h341.333v170.667c0 94.208-76.425 170.598-170.667 170.598-94.276 0-170.667-76.39-170.667-170.598zM307.2 887.466c-131.959 0-238.933-106.974-238.933-238.933s106.974-238.933 238.933-238.933c131.959 0 238.933 106.94 238.933 238.933s-106.974 238.933-238.933 238.933z" />
<glyph unicode="&#xe612;" d="M989.798 443.835h-68.267v-511.966h-68.267v511.966h-68.267v68.267h68.267v443.733h68.267v-443.733h68.267v-68.267zM546.065-68.13h-68.267v204.766h-68.267v68.267h68.267v750.933h68.267v-750.933h68.267v-68.267h-68.267v-204.766zM170.598-68.13h-68.267v785.033h-68.267v68.267h68.267v170.667h68.267v-170.667h68.267v-68.267h-68.267v-785.033z" />
<glyph unicode="&#xe613;" d="M238.865 751.035c0 44.544-28.57 82.022-68.267 96.119v108.681h-68.267v-108.681c-39.697-14.097-68.267-51.61-68.267-96.119s28.57-82.022 68.267-96.119v-723.046h68.267v723.046c39.697 14.097 68.267 51.575 68.267 96.119zM989.798 477.969c0 44.544-28.604 82.022-68.267 96.119v381.747h-68.267v-381.747c-39.663-14.097-68.267-51.575-68.267-96.119 0-44.476 28.604-82.022 68.267-96.119v-449.98h68.267v449.98c39.663 14.097 68.267 51.61 68.267 96.119zM614.332 170.769c0 44.544-28.604 82.022-68.267 96.085v688.981h-68.267v-688.981c-39.697-14.063-68.267-51.575-68.267-96.085s28.57-82.022 68.267-96.119v-142.78h68.267v142.78c39.663 14.097 68.267 51.575 68.267 96.119zM136.465 785.169c18.842 0 34.133-15.258 34.133-34.133 0-18.842-15.292-34.099-34.133-34.099s-34.133 15.258-34.133 34.099c0 18.876 15.292 34.133 34.133 34.133zM511.932 204.902c18.876 0 34.133-15.258 34.133-34.133 0-18.842-15.258-34.133-34.133-34.133-18.842 0-34.133 15.292-34.133 34.133 0 18.876 15.292 34.133 34.133 34.133zM887.398 512.102c18.876 0 34.133-15.258 34.133-34.133 0-18.842-15.258-34.133-34.133-34.133s-34.133 15.292-34.133 34.133c0 18.876 15.258 34.133 34.133 34.133z" />
<glyph unicode="&#xe614;" d="M614.366 392.601v-255.966l204.8-136.67v-68.267l-614.4 0.102v68.267l204.8 136.567v255.966l-409.6-51.234v102.434l409.6 170.667v136.533l102.4 204.8 102.4-204.8v-136.533l409.6-170.667v-102.434l-409.6 51.234zM546.099 561.118v172.817l-34.133 85.333-34.133-85.333v-171.725l-341.333-133.325 341.333 49.084v-391.475l-136.533-86.391h343.484l-138.684 85.333v393.557l341.333-50.108-341.333 132.233z" />
<glyph unicode="&#xe615;" d="M731.375 170.735l87.757-136.533h-614.4l87.757 136.533h-292.557v682.667h1024v-682.667h-292.557zM955.665 785.135h-887.467v-546.133h268.186l175.548 273.067 175.548-273.067h268.186v546.133zM511.932 375.535l-170.667-273.067h341.333l-170.667 273.067z" />
<glyph unicode="&#xe616;" d="M988.126 580.642l-305.903 303.889c0 0 157.628 97.724 280.405-25.327 120.866-121.105 25.498-278.562 25.498-278.562zM921.566 819.951c-66.765 68.267-136.533 34.133-136.533 34.133l170.667-170.667c0 0 31.403 69.53-34.133 136.533zM887.433 410.351c0-107.998-45.841-205.005-118.784-273.51l119.33-119.296-51.473-51.439-125.986 125.918c-57.651-36.045-125.542-57.173-198.519-57.173-73.148 0-141.175 21.231-198.861 57.446l-125.133-125.133-50.961 50.927 118.511 118.477c-73.114 68.54-119.057 165.683-119.057 273.783 0 197.632 152.747 360.653 346.59 375.467h57.754c128.683-9.83 346.59-120.969 346.59-375.467zM511.966 717.926c-169.882 0-307.575-137.728-307.575-307.575 0-169.916 137.728-307.575 307.575-307.575s307.61 137.66 307.61 307.575c0 169.882-137.728 307.575-307.61 307.575zM682.633 376.183h-204.8v273.067h68.267v-204.834h136.533v-68.233zM61.269 859.204c122.778 123.051 280.371 25.327 280.371 25.327l-305.869-303.889c0 0-95.334 157.457 25.498 278.562zM68.233 683.417l170.667 170.667c0 0-69.769 34.133-136.533-34.133-65.536-67.004-34.133-136.533-34.133-136.533z" />
<glyph unicode="&#xe617;" d="M511.932-68.199c-85.402 1.058-409.6 297.506-409.6 580.267 0 282.795 183.364 443.767 409.6 443.767 226.202 0 409.6-160.973 409.6-443.767 0-282.761-332.732-581.222-409.6-580.267zM511.932 887.535c-188.484 0-341.333-130.389-341.333-375.501 0-229.069 270.165-511.044 341.333-512 64.068-0.819 341.333 279.689 341.333 512 0 245.111-152.815 375.501-341.333 375.501zM673.929 338.432l-111.923-31.027c0 0-7.578 29.321-13.687 54.921-12.834 83.831 33.963 166.093 108.476 186.743l112.299 31.095c2.185-8.567 14.199-54.784 14.199-54.784 12.425-83.081-35.26-166.434-109.363-186.948zM721.681 495.308l-53.897-14.95c-39.049-10.82-70.212-42.223-58.334-88.064 14.985 4.164 64.751 17.954 64.751 17.954 28.843 7.646 59.187 39.731 47.479 85.060zM461.858 307.404l-111.923 31.027c-74.138 20.514-121.788 103.834-109.329 186.948 0 0 12.015 46.217 14.199 54.784l112.299-31.095c74.513-20.651 121.31-102.946 108.476-186.743-7.953-32.597-13.722-54.921-13.722-54.921zM356.079 480.392l-53.862 14.95c-11.742-45.329 18.603-77.414 47.479-85.026 0 0 49.766-13.79 64.751-17.954 11.844 45.773-19.319 77.175-58.368 88.030z" />
<glyph unicode="&#xe618;" d="M1023.659 204.834v68.267h-1024v-68.267h1024zM1023.659 477.9h-1024v-68.267h1024v68.267zM1023.659 682.735h-1024v-68.301h1024v68.301zM1023.659 887.5h-1024v-68.267h1024v68.267zM238.592 0.034h546.133v68.267h-546.133v-68.267z" />
<glyph unicode="&#xe619;" d="M-0.341 204.834v68.267h1024v-68.267h-1024zM-0.341 477.9h1024v-68.267h-1024v68.267zM-0.341 682.735h1024v-68.301h-1024v68.301zM-0.341 887.5h1024v-68.267h-1024v68.267zM511.659 0.034h-512v68.267h512v-68.267z" />
<glyph unicode="&#xe61a;" d="M1023.659 204.834v68.267h-1024v-68.267h1024zM1023.659 477.9h-1024v-68.267h1024v68.267zM1023.659 682.735h-1024v-68.301h1024v68.301zM1023.659 887.5h-1024v-68.267h1024v68.267zM511.659 0.034h512v68.267h-512v-68.267z" />
<glyph unicode="&#xe61b;" d="M1020.894 601.054l-0.614-7.134c-11.776-142.643-60.177-316.348-203.81-462.097-134.007-135.919-307.951-182.682-453.188-194.867l-8.431-0.819c-154.044-11.639-273.613 15.121-273.613 15.121l-46.66 14.95-16.009 48.811c0 0-26.658 119.228-15.087 272.486l0.614 6.144c11.913 145.783 58.607 320.922 196.164 454.451 146.125 141.824 318.942 190.43 461.005 202.718l9.148 0.785c153.941 11.776 269.346-18.671 269.346-18.671l50.586-11.059 11.025-50.551c-0.034 0 30.993-116.053 19.524-270.268zM87.893 19.558c70.315-9.694 137.045-16.725 201.387-17.886l-220.604 220.638c-0.205-73.557 7.987-143.258 19.217-202.752zM639.249 880.503c-129.434-18.125-272.316-71.202-399.872-197.53-104.789-103.765-150.528-235.486-165.069-364.1l313.446-313.446c138.069 13.687 266.82 66.628 397.756 199.68 97.451 99.021 142.882 238.797 160.051 369.050l-306.313 306.347zM939.11 870.673c-53.35 9.967-124.826 19.319-205.278 17.476l219.682-219.682c3.038 82.5-4.028 155.17-14.404 202.206zM669.662 444.006l-53.043 53.043-54.545-54.579 53.009-52.975-47.821-47.855-53.043 53.043-54.545-54.579 53.009-53.009-47.821-47.855-53.043 53.043-53.009-53.043-51.2 51.2 53.009 53.043-53.009 53.009 47.821 47.855 53.043-53.009 54.545 54.545-53.009 53.043 47.821 47.821 53.043-53.009 54.545 54.545-53.009 53.009 47.821 47.855 53.077-53.009 52.736 52.736 51.2-51.2-52.736-52.77 53.009-53.043-47.855-47.855z" />
<glyph unicode="&#xe61c;" d="M906.991 307.063l-53.726 53.726v-19.388c0-177.015-134.724-322.458-307.2-339.593v-70.007h-68.267v70.007c-172.476 17.135-307.2 162.611-307.2 339.593v0 19.388l-53.726-53.726-48.879 48.879 122.197 122.197h29.082l122.197-122.197-48.879-48.879-53.726 53.726v-19.388c0-139.196 104.277-253.884 238.933-270.711v475.511h-102.4v68.267h102.4v73.114c-58.812 15.223-102.4 68.164-102.4 131.686 0 75.401 61.133 136.533 136.533 136.533s136.533-61.133 136.533-136.533c0-63.522-43.588-116.463-102.4-131.686v-73.114h102.4v-68.267h-102.4v-475.511c134.656 16.828 238.933 131.516 238.933 270.711v19.388l-53.726-53.726-48.879 48.879 122.197 122.197h29.082l122.197-122.197-48.879-48.879zM580.198 819.268c0 37.683-30.583 68.267-68.267 68.267s-68.267-30.583-68.267-68.267 30.583-68.267 68.267-68.267 68.267 30.549 68.267 68.267z" />
<glyph unicode="&#xe61d;" d="M992.666 544.768c-44.476-79.77-120.013-120.764-168.721-91.614s-52.122 117.487-7.68 197.188c44.476 79.77 120.013 120.764 168.721 91.614s52.156-117.453 7.68-197.188zM953.958 678.98c-8.294 15.223-37.171-8.841-64.512-53.76s-42.803-93.764-34.509-108.954c8.294-15.292 37.171 8.806 64.512 53.692 27.341 44.954 42.803 93.73 34.509 109.022zM610.202 583.748c-52.565 16.521-78.063 104.858-56.934 197.325s80.862 154.044 133.461 137.489c52.565-16.521 78.063-104.823 56.934-197.291-21.129-92.433-80.862-153.975-133.461-137.523zM664.815 852.172c-16.828 7.509-37.751-31.676-46.763-87.484-9.045-55.808-2.697-107.076 14.097-114.551 16.828-7.475 37.751 31.71 46.763 87.484s2.697 107.145-14.097 114.551zM939.042 39.56c-55.603-95.027-230.775-97.894-391.236-6.485-12.902 7.339-24.474 15.633-36.386 23.723-11.605-7.817-22.801-15.872-35.328-22.972-160.495-91.034-335.633-88.132-391.236 6.451-55.569 94.549 29.457 245.009 189.918 336.009 72.192 40.926 147.251 62.703 213.197 65.843 75.742 7.953 170.769-13.551 261.188-65.092 160.427-91.375 245.453-242.517 189.884-337.476zM311.398 320.273c-178.961-91.204-199.1-229.069-155.716-258.15 146.295-98.133 377.788 110.66 356.284 83.217 105.745-70.417 280.508-148.139 355.362-88.269 69.837 55.774-51.883 200.090-151.825 256.58-142.643 80.623-252.894 83.695-404.105 6.622zM413.662 583.748c-52.599-16.452-112.333 45.090-133.461 137.523-21.129 92.467 4.369 180.77 56.934 197.325 52.599 16.521 112.333-45.022 133.461-137.489s-4.369-180.838-56.934-197.359zM405.845 764.723c-9.011 55.808-29.935 94.959-46.763 87.484-16.794-7.441-23.108-58.743-14.097-114.517 9.011-55.808 29.935-94.959 46.763-87.484 16.794 7.441 23.074 58.709 14.097 114.517zM199.919 453.188c-48.708-29.15-124.245 11.844-168.721 91.614-44.476 79.735-41.028 168.038 7.68 197.188s124.245-11.844 168.721-91.614c44.476-79.701 41.028-168.038-7.68-197.188zM134.076 625.22c-26.761 44.919-55.057 68.983-63.147 53.76-8.090-15.292 7.031-64.068 33.792-109.022 26.795-44.885 55.057-68.983 63.181-53.692 8.090 15.189-7.031 64-33.826 108.954z" />
<glyph unicode="&#xe61e;" d="M512 819.302c-75.401 0-136.533-61.133-136.533-136.499 0-63.59 43.52-116.873 102.4-132.062v-618.906h68.267v618.906c58.88 15.189 102.4 68.471 102.4 132.062 0 75.366-61.133 136.499-136.533 136.499zM512 614.502c-37.683 0-68.267 30.583-68.267 68.301s30.583 68.233 68.267 68.233 68.267-30.549 68.267-68.233-30.583-68.301-68.267-68.301zM262.519 842.649c-38.332-30.379-57.958-91.034-57.754-143.155 0.137-53.487 15.155-98.236 56.695-140.322l46.831 39.253c-25.907 32.154-34.475 83.695-34.475 101.069 0 19.49 5.359 72.431 35.533 102.468l-46.831 40.687zM887.228 955.631l-48.879-47.889c53.794-39.39 81.954-131.55 81.954-208.452 0-71.612-29.218-168.175-83.046-207.531l48.879-47.684c72.772 52.395 103.765 135.1 103.765 255.215 0.102 84.719-29.901 203.947-102.673 256.341zM761.481 842.649l-46.831-40.687c30.174-30.037 35.533-82.978 35.533-102.468 0-17.374-8.567-68.915-34.475-101.069l46.831-39.253c41.54 42.086 56.559 86.835 56.695 140.322 0.171 52.156-19.422 112.811-57.754 143.155zM103.663 699.255c0 76.937 28.16 169.097 81.954 208.452l-48.845 47.923c-72.772-52.395-102.775-171.622-102.707-256.375 0-120.115 30.993-202.82 103.765-255.215l48.879 47.684c-53.794 39.39-83.046 135.953-83.046 207.531z" />
<glyph unicode="&#xe61f;" d="M1024 382.293c0 6.724-0.614 13.312-1.024 19.934 0.375 5.803 0.819 11.435 1.024 17.579 0.512 16.794 0-37.513 0-37.513zM640-68.301c-52.736 0-94.857 13.039-128 35.908-33.143-22.869-75.298-35.908-128-35.908-188.075 0-165.513 96.017-230.4 187.767-74.377 105.131-143.155 141.38-152.576 282.761 10.547 156.57 143.394 280.439 306.176 280.439 63.317 0 121.822-19.149 170.667-51.302l34.133 324.403 136.533-68.301-102.4-256.102c48.845 32.154 107.349 51.302 170.667 51.302 162.782 0 295.595-123.87 306.176-280.439-9.421-141.414-78.199-177.63-152.576-282.761-64.853-91.75-42.325-187.767-230.4-187.767zM955.733 389.12c0 0 0.444 46.865 0 32.393-0.171-5.291-0.58-10.206-0.887-15.155-9.148 135.168-128.546 208.009-231.185 208.009-68.301 0-168.789-46.558-211.627-100.557-47.138 41.199-96.324 99.601-211.627 100.557-108.954 0.99-222.071-72.841-231.185-208.009-0.41 4.983-0.819 9.865-0.956 15.189-0.444 14.438 0-32.427 0-32.427 0 5.803 0.512 11.469 0.887 17.237 8.158-122.095 67.755-153.395 132.233-244.258 56.218-79.189 36.693-162.099 199.68-162.099 45.67 0 82.227 11.23 110.933 30.959 28.706-19.729 65.229-30.959 110.933-30.959 162.987 0 143.462 82.91 199.68 162.099 64.478 90.863 124.075 122.163 132.233 244.258 0.341-5.769 0.887-11.435 0.887-17.237zM170.667 443.699c14.302 72.055 102.4 102.434 102.4 102.434s-31.3-40.619-34.133-136.533c-2.628-88.439 34.133-170.701 34.133-170.701s-125.986 85.914-102.4 204.8zM0 419.806c0.171-6.144 0.649-11.776 1.024-17.579-0.444-6.622-1.024-13.21-1.024-19.934 0 0-0.512 54.306 0 37.513z" />
<glyph unicode="&#xe620;" d="M832.375 409.429c-1.502 138.411 121.242 204.8 126.737 208.111-68.983 93.867-169.95 97.792-208.179 99.226-91.409 8.636-192.546-68.267-238.933-68.267-46.251 0-94.891 69.564-170.667 68.267-99.669-1.365-206.78-47.479-258.116-130.628-103.492-167.117-26.487-380.655 74.377-516.335 49.323-66.321 108.134-140.902 185.276-138.172 74.377 2.765 102.434 44.749 192.307 44.749s115.132-44.715 193.775-43.383c79.974 1.399 130.628 67.652 179.575 134.212 56.661 77.039 79.94 117.521 81.34 121.276-1.775 0.785-155.921 55.74-157.491 220.945zM512.512 750.967c-7.68 51.098 21.060 104.175 53.897 137.523 36.659 37.615 98.475 65.536 149.538 67.311 6.519-52.053-17.442-104.311-52.838-141.892-35.499-37.547-93.628-66.799-150.596-62.942zM750.933 409.6c1.365-164.25 134.997-238.251 136.533-238.967-1.195-3.106 12.971 4.949-35.567-58.743-41.95-54.955-85.367-109.67-153.907-110.797-67.447-1.126-89.054 35.806-166.127 35.806-77.005 0-101.069-34.679-164.83-36.932-66.116-2.253-116.531 59.324-158.788 114.176-86.46 112.060-152.474 288.495-63.761 426.564 43.964 68.574 111.411 106.633 196.847 107.827 64.956 1.024 92.604-71.1 170.667-68.267 123.221 4.471 215.211 131.413 341.333 34.133-4.745-2.765-103.458-90.522-102.4-204.8z" />
<glyph unicode="&#xe621;" d="M1006.933 512c0 82.569-58.641 151.45-136.533 167.219v276.514h-716.8v-276.514c-77.892-15.804-136.533-84.651-136.533-167.219 0-56.081 27.443-105.472 69.188-136.567h-0.922v-375.433h68.267v-68.267h68.267v68.267h580.267v-68.267h68.267v68.267h68.267v375.433h-0.922c41.745 31.095 69.188 80.486 69.188 136.567zM221.867 887.466h580.267v-208.247c-77.892-15.804-136.533-84.651-136.533-167.219 0-24.303 5.222-47.343 14.404-68.267h-336.009c9.148 20.924 14.404 43.964 14.404 68.267 0 82.569-58.641 151.45-136.533 167.219v208.247zM85.333 512c0 56.559 45.841 102.366 102.4 102.366s102.4-45.807 102.4-102.366-45.841-102.4-102.4-102.4-102.4 45.841-102.4 102.4zM870.4 68.232h-716.8v276.548c11.025-2.253 22.426-3.447 34.133-3.447 38.605 0 73.796 13.312 102.4 34.884v-0.785h443.733v0.785c28.604-21.572 63.795-34.884 102.4-34.884 11.708 0 23.108 1.195 34.133 3.447v-276.548zM836.267 409.6c-56.559 0-102.4 45.807-102.4 102.4s45.841 102.366 102.4 102.366 102.4-45.807 102.4-102.366-45.841-102.4-102.4-102.4z" />
<glyph unicode="&#xe622;" d="M955.699 648.567l-0.546 191.522-511.454-511.761v-191.761h-68.267v123.494l-34.133-34.133v-191.761h-68.267v123.529l-34.133-34.133v-191.795h-68.267v149.504l-21.231 21.197h-149.436v68.198h191.898l34.167 34.202h-123.665v68.233h192.034l34.202 34.133h-123.836v68.267h192.205l512.853 512h-193.058v68.233h307.2v-307.166h-68.267z" />
<glyph unicode="&#xe623;" d="M1024.683 443.767c0-54.272-76.288-102.468-194.731-133.7 57.89-101.41 75.708-185.31 38.707-222.276-37.001-37.001-120.9-19.217-222.31 38.673-31.232-118.443-79.428-194.731-133.666-194.731s-102.434 76.288-133.666 194.731c-101.41-57.856-185.31-75.674-222.31-38.673-37.001 36.966-19.217 120.866 38.707 222.276-118.477 31.232-194.731 79.428-194.731 133.7 0 54.238 76.254 102.4 194.731 133.666-57.89 101.376-75.708 185.276-38.707 222.276 37.001 37.035 120.9 19.217 222.31-38.707 31.232 118.443 79.394 194.731 133.666 194.731s102.434-76.288 133.666-194.731c101.41 57.89 185.31 75.742 222.31 38.707 37.001-37.001 19.217-120.9-38.707-222.276 118.409-31.266 194.731-79.428 194.731-133.666zM68.949 443.767c0-31.676 62.771-59.87 160.939-78.609 17.135 25.532 36.796 51.78 57.993 78.302-21.436 26.726-40.721 53.146-57.993 78.916-98.202-18.773-160.939-46.967-160.939-78.609zM204.151 752.264c-21.504-21.47 0.887-82.33 53.35-160.802 29.457 5.666 60.553 10.479 93.321 14.097 3.618 32.768 8.465 63.898 14.131 93.355-78.473 52.463-139.332 74.82-160.802 53.35zM330.752 494.046c4.642 5.257 8.567 10.513 13.346 15.77 0.444 9.387 0.375 19.251 0.922 28.535-15.804-1.502-30.686-3.345-45.5-5.188 9.83-12.834 20.241-25.873 31.232-39.117zM299.52 354.406c14.814-1.911 29.696-3.721 45.5-5.222-0.58 9.25-0.683 19.012-0.922 28.57-4.506 4.983-9.114 9.967-13.517 14.95-10.65-12.971-21.47-25.907-31.061-38.298zM350.822 281.941c-32.768 3.618-63.863 8.431-93.321 14.097-52.429-78.507-74.82-139.332-53.35-160.802 21.47-21.504 82.295 0.887 160.802 53.35-5.666 29.457-10.479 60.587-14.131 93.355zM607.266 276.138c-9.284-0.614-19.183-0.546-28.57-0.922-5.257-4.779-10.479-8.704-15.735-13.346 13.278-10.991 26.317-21.47 39.083-31.266 1.843 14.78 3.721 29.73 5.222 45.534zM512.683 0.034c31.676 0 59.87 62.771 78.609 160.939-25.737 17.237-52.122 36.557-78.916 57.993-26.487-21.231-52.77-40.892-78.302-57.993 18.739-98.167 46.933-160.939 78.609-160.939zM423.287 230.604c12.425 9.557 25.361 20.412 38.298 31.061-4.983 4.437-9.967 9.045-14.95 13.517-9.557 0.273-19.285 0.341-28.57 0.922 1.502-15.77 3.345-30.72 5.222-45.5zM418.065 611.396c9.25 0.58 19.183 0.478 28.57 0.887 5.257 4.779 10.479 8.704 15.735 13.346-13.278 10.991-26.317 21.402-39.083 31.3-1.877-14.848-3.721-29.764-5.222-45.534zM512.683 887.466c-31.676 0-59.87-62.771-78.609-160.905 25.737-17.271 52.122-36.591 78.916-58.027 26.487 21.231 52.77 40.892 78.302 58.027-18.773 98.133-46.967 160.905-78.609 160.905zM602.044 656.93c-12.425-9.626-25.395-20.412-38.298-31.13 4.983-4.403 9.967-9.011 14.95-13.517 9.557-0.273 19.251-0.341 28.57-0.887-1.502 15.77-3.379 30.686-5.222 45.534zM613.751 484.044c-9.762 10.24-19.797 20.514-30.071 30.754s-20.548 20.275-30.754 30.071c-13.517 0.273-26.385 1.058-40.277 1.058s-26.761-0.785-40.277-1.058c-10.274-9.796-20.514-19.797-30.754-30.071-10.308-10.274-20.309-20.548-30.071-30.754-0.307-13.517-1.092-26.419-1.092-40.277s0.785-26.761 1.092-40.311c9.762-10.24 19.763-20.514 30.071-30.754 10.274-10.274 20.514-20.275 30.754-30.071 13.517-0.307 26.385-1.058 40.277-1.058s26.761 0.751 40.277 1.058c10.24 9.796 20.514 19.797 30.754 30.071s20.309 20.548 30.071 30.754c0.307 13.517 1.092 26.419 1.092 40.311 0.034 13.824-0.785 26.761-1.092 40.277zM821.18 135.236c21.504 21.47-0.887 82.295-53.35 160.802-29.457-5.666-60.553-10.479-93.321-14.097-3.618-32.768-8.465-63.898-14.131-93.355 78.473-52.463 139.332-74.854 160.802-53.35zM694.579 393.455c-4.642-5.257-8.567-10.479-13.38-15.735-0.41-9.421-0.341-19.319-0.887-28.57 15.804 1.502 30.686 3.345 45.5 5.222-9.83 12.8-20.241 25.839-31.232 39.083zM725.811 533.128c-14.814 1.877-29.696 3.686-45.5 5.188 0.58-9.25 0.683-18.978 0.887-28.535 4.54-4.983 9.148-10.001 13.517-14.985 10.684 12.937 21.504 25.873 31.095 38.332zM821.18 752.264c-21.47 21.47-82.295-0.887-160.802-53.35 5.666-29.457 10.513-60.587 14.131-93.355 32.768-3.618 63.863-8.431 93.321-14.097 52.429 78.473 74.854 139.332 53.35 160.802zM795.477 522.376c-17.135-25.566-36.796-51.814-57.993-78.302 21.436-26.795 40.721-53.18 57.993-78.916 98.167 18.739 160.939 46.933 160.939 78.609 0 31.642-62.771 59.836-160.939 78.609zM512.683 409.634c-18.876 0-34.133 15.258-34.133 34.133 0 18.842 15.258 34.099 34.133 34.099 18.842 0 34.133-15.258 34.133-34.099 0-18.876-15.326-34.133-34.133-34.133z" />
<glyph unicode="&#xe624;" d="M580.233-68.267c-254.020 0-238.933 204.834-238.933 204.834v511.932c0 0-18.261 170.735 170.667 170.735 187.187-0.068 170.667-170.735 170.667-170.735v-443.665h-68.267v443.665c0 0 8.294 101.922-102.4 102.4-111.514 0.546-102.4-102.4-102.4-102.4v-511.932c0 0-3.789-136.909 170.667-136.567 170.394 0.341 170.667 136.567 170.667 136.567v580.198c0 0-2.594 169.882-238.933 170.667-239.753 0.853-238.933-170.667-238.933-170.667v-580.198h-68.267v580.198c0 0-1.57 238.967 307.2 238.967 308.395 0 307.2-238.967 307.2-238.967v-580.198c0 0 4.813-204.834-238.933-204.834z" />
<glyph unicode="&#xe625;" d="M546.953-68.267v68.267h477.867v-68.267h-477.867zM581.086 285.866l54.784 54.784-123.051 123.051-464.043-464.077-48.265 48.299 464.043 464.077-123.051 123.051-54.784-54.818-46.967 46.967 328.567 328.533 46.933-46.933-54.818-54.784 294.4-294.4 54.784 54.784 46.933-46.899-328.533-328.602-46.933 46.967zM806.571 511.317l-294.4 294.4-122.402-122.368 294.4-294.366 122.402 122.334z" />
<glyph unicode="&#xe626;" d="M955.733-68.199v136.533h-887.467v-136.533h-68.267v750.933h1024v-750.933h-68.267zM170.667 614.468h-102.4v-477.867h102.4v477.867zM375.467 614.468h-136.533v-477.867h136.533v477.867zM580.267 614.468h-136.533v-477.867h136.533v477.867zM785.067 614.468h-136.533v-477.867h136.533v477.867zM955.733 614.468h-102.4v-477.867h102.4v477.867zM921.6 751.001c-56.525 0-102.4 45.841-102.4 102.4 0 56.525 45.875 102.4 102.4 102.4s102.4-45.875 102.4-102.4c0-56.559-45.875-102.4-102.4-102.4zM921.6 887.535c-18.876 0-34.133-15.292-34.133-34.133s15.258-34.133 34.133-34.133 34.133 15.292 34.133 34.133-15.258 34.133-34.133 34.133zM102.4 751.001c-56.559 0-102.4 45.841-102.4 102.4 0 56.525 45.841 102.4 102.4 102.4s102.4-45.875 102.4-102.4c0-56.559-45.841-102.4-102.4-102.4zM102.4 887.535c-18.842 0-34.133-15.292-34.133-34.133s15.292-34.133 34.133-34.133 34.133 15.292 34.133 34.133-15.292 34.133-34.133 34.133z" />
<glyph unicode="&#xe627;" d="M272.725-68.233v614.4h68.267v68.267c0 0 102.4 77.687 102.4 136.499 0 13.551 0 21.572 0 26.59-20.787 18.773-34.133 45.636-34.133 75.844 0 56.559 45.841 102.4 102.4 102.4s102.4-45.841 102.4-102.4c0-30.208-13.346-57.071-34.133-75.844 0-5.905 0-14.78 0-26.59 0-59.733 102.4-136.499 102.4-136.499v-68.267h68.267v-614.4h-477.867zM511.659 887.5c-18.876 0-34.133-15.258-34.133-34.133 0-18.842 15.258-34.133 34.133-34.133s34.133 15.292 34.133 34.133c0 18.876-15.258 34.133-34.133 34.133zM543.676 658.159c-17.067 25.6-32.017 58.675-32.017 58.675s-16.247-31.846-34.133-58.675c-16.145-24.235-36.284-43.725-36.284-43.725h138.684c0 0-19.183 18.125-36.25 43.725zM682.325 477.9h-341.333v-68.267h102.4v-68.267h-102.4v-68.267h102.4v-68.301h-102.4v-68.233h102.4v-68.267h-102.4v-68.267h341.333v477.867z" />
<glyph unicode="&#xe628;" d="M853.333 477.935v-68.267h-93.867l59.733-477.867h-68.267l-17.067 136.533h-443.733l-17.067-136.533h-68.267l59.733 477.867h-93.867v68.267h102.4v136.533h-102.4v68.267h102.4v136.533c0 75.401 61.133 136.533 136.533 136.533h204.8c75.401 0 136.533-61.133 136.533-136.533v-136.533h102.4v-68.267h-102.4v-136.533h102.4zM546.133 614.468v-136.533h136.533v136.533h-136.533zM332.8 409.668l-12.8-102.4h384l-12.8 102.4h-358.4zM341.333 614.468v-136.533h136.533v136.533h-136.533zM725.333 136.601l-12.8 102.4h-401.067l-12.8-102.4h426.667zM682.667 819.268c0 37.683-30.583 68.267-68.267 68.267h-204.8c-37.683 0-68.267-30.583-68.267-68.267v-136.533h341.333v136.533z" />
<glyph unicode="&#xe629;" d="M921.6 341.401h-18.807c-52.19-138.479-207.394-238.933-390.793-238.933s-338.603 100.454-390.793 238.933h-18.807c-56.559 0-102.4 45.841-102.4 102.4 0 56.525 45.841 102.4 102.4 102.4h18.807c52.19 138.479 207.394 238.933 390.793 238.933s338.603-100.454 390.793-238.933h18.807c56.559 0 102.4-45.875 102.4-102.4 0-56.559-45.841-102.4-102.4-102.4zM921.6 477.935h-71.202c-19.388 124.075-142.711 222.174-298.052 236.817-20.514-3.209-49.766-10.172-74.479-32.017-54.409-48.060-35.021-83.866-14.234-96.734 11.366-7.031 29.15-15.326 53.009 6.758 25.19 23.347 29.491 55.842 29.491 55.842v0c0 0 33.69-60.211 1.058-99.26-19.763-23.654-43.588-37.239-76.834-37.239-4.301 0-6.724-0.034-6.724-0.034s-88.166 10.957-88.166 102.4c0 41.916 20.992 71.612 46.387 92.638-131.345-28.774-231.014-118.682-248.252-229.171h-71.202c-18.876 0-34.133-15.292-34.133-34.133 0-18.876 15.258-34.133 34.133-34.133h71.202c21.060-134.656 164.352-238.933 338.398-238.933s317.338 104.277 338.398 238.933h71.202c18.876 0 34.133 15.258 34.133 34.133 0 18.842-15.258 34.133-34.133 34.133zM699.733 409.668c-28.262 0-51.2 22.903-51.2 51.2 0 28.262 22.938 51.2 51.2 51.2s51.2-22.938 51.2-51.2c0-28.297-22.938-51.2-51.2-51.2zM512 239.001c-145.954 0-170.667 102.4-170.667 102.4s63.693-34.133 170.667-34.133c108.851 0 170.667 34.133 170.667 34.133s-35.123-102.4-170.667-102.4zM324.267 409.668c-28.262 0-51.2 22.903-51.2 51.2 0 28.262 22.938 51.2 51.2 51.2s51.2-22.938 51.2-51.2c0-28.297-22.938-51.2-51.2-51.2z" />
<glyph unicode="&#xe62a;" d="M750.933-68.199h-477.867c-75.401 0-136.533 61.133-136.533 136.533v512c0 207.36 168.107 375.467 375.467 375.467s375.467-168.107 375.467-375.467v-512c0-75.401-61.133-136.533-136.533-136.533zM512 887.535c-131.959 0-238.933-106.974-238.933-238.933s106.974-238.933 238.933-238.933 238.933 106.974 238.933 238.933-106.974 238.933-238.933 238.933zM819.2 580.335c0 0-53.214-238.933-307.2-238.933-257.809 0-307.2 238.933-307.2 238.933v-512c0-37.717 30.583-68.267 68.267-68.267h477.867c37.683 0 68.267 30.549 68.267 68.267v512z" />
<glyph unicode="&#xe62b;" d="M819.2 68.335v-136.533h-614.4v136.533c-113.084 0-204.8 91.716-204.8 204.8s91.716 204.8 204.8 204.8h614.4c113.084 0 204.8-91.716 204.8-204.8s-91.716-204.8-204.8-204.8zM68.267 273.135c0-75.401 61.133-136.533 136.533-136.533v273.067c-75.401 0-136.533-61.167-136.533-136.533zM750.933 409.668h-477.867v-409.6h477.867v409.6zM828.006 409.668c-3.584 0-5.769-0.819-8.806-1.126v-270.814c3.038-0.341 5.188-1.126 8.806-1.126 70.519 0 127.727 61.133 127.727 136.533 0 75.366-57.207 136.533-127.727 136.533zM204.8 682.735l204.8 136.533v136.533h204.8v-136.533l204.8-136.533v-136.533h-614.4v136.533zM273.067 614.468h477.867v34.133l-204.8 136.533v102.4h-68.267v-102.4l-204.8-136.533v-34.133z" />
<glyph unicode="&#xe62c;" d="M889.617 622.933c81.783 17.783 134.383 78.575 134.383 162.202 0 94.276-76.39 170.667-170.667 170.667-83.627 0-156.399-56.969-163.533-138.001-3.345-37.717 7.748-51.883-75.401-135.066-24.474-24.474-61.406-33.451-94.788-36.352l-172.681 172.681-73.694-73.66 138.24-138.206c-22.665 4.745-46.080 7.27-70.144 7.27-188.518 0-341.333-152.849-341.333-341.333s152.815-341.333 341.333-341.333c188.518 0 341.333 152.849 341.333 341.333 0 24.064-2.526 47.479-7.236 70.144l138.206-138.24 73.694 73.694-172.715 172.681c2.867 33.382 11.844 70.315 36.318 94.788 83.149 83.149 101.717 68.71 138.684 76.732zM853.333 682.735c-36.011-2.867-52.838-8.465-123.733-74.684-45.943-42.837-81.067-95.983-81.067-95.983l-68.267 68.267c0 0 39.458 20.924 93.867 72.533 69.495 65.946 74.684 94.106 76.8 132.267 3.106 56.491 45.875 102.4 102.4 102.4s102.4-45.841 102.4-102.4-46.046-97.929-102.4-102.4zM341.333 546.201c150.801 0 273.067-122.266 273.067-273.067 0-150.835-122.266-273.067-273.067-273.067s-273.067 122.231-273.067 273.067c0 150.801 122.266 273.067 273.067 273.067z" />
<glyph unicode="&#xe62d;" d="M-2.15 822.715l106.94-241.425h102.4v-442.675c0 0 136.533-28.399 204.8-205.926 1.263-3.277-3.55 0 0 0 28.365 0 102.844 0 204.8 0 4.335 0-1.331-4.028 0 0 59.119 175.309 204.8 205.926 204.8 205.926v442.709h102.4l102.195 240.742-204.595 100.557c0 0-27.75 34.133-104.55 34.133h-66.15c0 0 2.15-137.591-138.65-137.591 0 0-138.684 8.567-136.533 137.591h-66.15c0 0-78.916-6.383-106.667-34.133l-205.039-99.908zM89.6 789.265l139.605 70.622c34.645 33.69 81.408 26.453 81.408 26.453s63.147-133.461 203.742-134.417c16.657-0.068 0 0 0 0 155.785-1.024 190.908 136.567 190.908 136.567 52.395 1.058 77.858-24.542 77.858-24.542l158.788-77.38-59.563-137.045h-129.058v-458.718c0 0-130.185-49.425-188.791-189.884-0.205-0.444 5.257 0.205 0 0-29.594-1.092-97.621 0-100.25 0-3.925 0 1.741-3.618 0 0-75.162 158.242-188.791 189.884-188.791 189.884v458.718h-123.767l-62.089 139.742z" />
<glyph unicode="&#xe62e;" d="M897.092 723.114l-24.986-24.132c-28.535 27.58-40.346 38.946-50.005 48.265l24.986 24.132c27.614 26.658 27.614 69.905 0 96.563s-72.329 26.658-99.942 0l-24.986-24.132-93.184-127.283h36.796v-1.365c163.055-7.066 238.933-110.217 238.933-237.568 0-127.283-79.667-230.332-238.933-237.568v-1.365h-386.765l-27.477-37.547c61.167-13.517 107.042-67.891 107.042-133.12 0-75.401-61.133-136.533-136.533-136.533s-136.533 61.133-136.533 136.533c0 51.098 28.433 95.13 70.007 118.545l516.642 705.536 24.986 24.132c55.194 53.316 144.725 53.316 199.919 0 55.228-53.35 55.228-139.776 0.034-193.092zM329.011 306.892h336.759c94.276 0 170.667 76.39 170.667 170.667 0 94.242-76.39 170.667-170.667 170.667h-86.801l-249.958-341.333zM768.171 204.492c-75.401 0-136.533-61.133-136.533-136.533s61.133-136.533 136.533-136.533c75.401 0 136.533 61.133 136.533 136.533s-61.133 136.533-136.533 136.533zM222.037 136.226c-37.717 0-68.267-30.549-68.267-68.267s30.583-68.267 68.267-68.267c37.683 0 68.267 30.549 68.267 68.267 0 37.683-30.583 68.267-68.267 68.267zM768.171 136.226c37.683 0 68.267-30.583 68.267-68.267 0-37.717-30.583-68.267-68.267-68.267s-68.267 30.549-68.267 68.267c0 37.717 30.549 68.267 68.267 68.267z" />
<glyph unicode="&#xe62f;" d="M1006.148 613.683c-55.74 0-209.34 0-341.333 0 0 185.105 0 304.64 0 341.333 0 3.584 7.168-0.068 10.718-0.171 179.917-5.564 324.779-150.323 330.445-330.24 0.102-3.618 3.823-10.923 0.171-10.923zM733.082 877.772v-195.823h195.413c-24.815 95.676-99.635 171.11-195.413 195.823zM1006.012 534.698c-5.7-202.411-171.52-364.749-375.33-364.749-189.918 0-346.829 141.039-371.917 324.096l-85.538 85.538h-156.945v68.267l184.218 0.137 102.537-102.537c66.833 0 188.621 0 327.612 0 221.047 0 340.002 0 375.467 0 3.618-0.034-0.034-7.202-0.102-10.752zM331.264 477.15c31.061-136.772 153.19-238.933 299.383-238.933s268.322 102.161 299.383 238.933h-598.767zM460.015 135.816c56.525 0 102.4-45.875 102.4-102.4 0-56.559-45.875-102.4-102.4-102.4s-102.4 45.841-102.4 102.4c0 56.525 45.841 102.4 102.4 102.4zM460.015-0.717c18.876 0 34.133 15.258 34.133 34.133 0 18.842-15.258 34.133-34.133 34.133s-34.133-15.292-34.133-34.133c0-18.876 15.258-34.133 34.133-34.133zM801.348 135.816c56.525 0 102.4-45.875 102.4-102.4 0-56.559-45.875-102.4-102.4-102.4s-102.4 45.841-102.4 102.4c0 56.525 45.841 102.4 102.4 102.4zM801.348-0.717c18.876 0 34.133 15.258 34.133 34.133 0 18.842-15.258 34.133-34.133 34.133s-34.133-15.292-34.133-34.133c0-18.876 15.258-34.133 34.133-34.133z" />
<glyph unicode="&#xe630;" d="M102.4 136.601c-56.559 0-102.4-45.875-102.4-102.4 0-56.559 45.841-102.4 102.4-102.4h819.2c56.559 0 102.4 45.841 102.4 102.4 0 56.525-45.841 102.4-102.4 102.4h-819.2zM204.8 409.668c-56.559 0-102.4-45.875-102.4-102.4 0-56.559 45.841-102.4 102.4-102.4h614.4c56.559 0 102.4 45.841 102.4 102.4 0 56.525-45.841 102.4-102.4 102.4h-614.4zM307.2 682.735c-56.559 0-102.4-45.841-102.4-102.4s45.841-102.4 102.4-102.4h409.6c56.559 0 102.4 45.841 102.4 102.4s-45.841 102.4-102.4 102.4h-409.6zM443.733 955.801c-56.559 0-102.4-45.875-102.4-102.4s45.841-102.434 102.4-102.434h136.533c56.559 0 102.4 45.909 102.4 102.434s-45.841 102.4-102.4 102.4h-136.533zM443.733 887.535h136.533c18.876 0 34.133-15.292 34.133-34.133s-15.258-34.133-34.133-34.133h-136.533c-18.876 0-34.133 15.292-34.133 34.133s15.258 34.133 34.133 34.133zM307.2 614.468h409.6c18.876 0 34.133-15.258 34.133-34.133 0-18.842-15.258-34.133-34.133-34.133h-409.6c-18.876 0-34.133 15.292-34.133 34.133 0 18.876 15.258 34.133 34.133 34.133zM204.8 341.401h614.4c18.842 0 34.133-15.258 34.133-34.133s-15.292-34.133-34.133-34.133h-614.4c-18.876 0-34.133 15.258-34.133 34.133s15.258 34.133 34.133 34.133zM102.4 68.335h819.2c18.876 0 34.133-15.292 34.133-34.133 0-18.876-15.258-34.133-34.133-34.133h-819.2c-18.876 0-34.133 15.258-34.133 34.133 0 18.842 15.258 34.133 34.133 34.133z" />
<glyph unicode="&#xe631;" d="M0 484.352l477.867-330.684v204.8c196.574-0.068 391.987-29.15 546.133-307.302 0 176.708-23.927 585.045-546.133 580.369v204.8l-477.867-351.983zM477.867 563.268c208.521 6.315 377.651-64.649 459.093-293.751-137.796 180.599-486.844 155.921-527.36 157.218v-136.567l-297.609 193.126 297.609 217.088v-137.114h68.267z" />
<glyph unicode="&#xe632;" d="M272.998 136.601l-273.067 307.166 273.067 307.268h750.933v-614.4h-750.933zM955.665 682.735h-648.533l-206.916-239.002 206.95-238.899h648.533v477.901zM523.469 580.096l90.863-90.863 90.863 90.863 45.431-45.431-90.863-90.931 90.863-90.829-45.431-45.466-90.863 90.863-90.863-90.863-45.431 45.466 90.863 90.829-90.863 90.897 45.431 45.466z" />
<glyph unicode="&#xe633;" d="M525.21 69.461l55.057-137.66h-136.533l55.057 137.66c-182.34 12.22-328.124 271.565-328.124 510.874 0 245.077 152.815 375.467 341.333 375.467s341.333-130.389 341.333-375.467c0-239.309-145.783-498.654-328.124-510.874zM512 887.535c-150.801 0-273.067-99.84-273.067-307.2s122.266-443.733 273.067-443.733 273.067 236.373 273.067 443.733-122.266 307.2-273.067 307.2zM353.143 556.646c-52.736 30.106-62.566 111.070-21.982 180.736 40.585 69.632 116.258 101.683 169.028 71.509 52.736-30.174 62.566-111.104 21.982-180.77-40.619-69.666-116.258-101.683-169.028-71.475zM464.998 747.827c-18.33 10.377-50.381-10.377-71.543-46.285-21.197-35.977-23.484-73.523-5.154-83.9 18.364-10.377 50.415 10.342 71.578 46.285 21.197 35.977 23.484 73.489 5.12 83.9z" />
<glyph unicode="&#xe634;" d="M833.741 124.62l53.726-107.486h-170.667l53.658 107.315c-37.205 10.854-71.475 39.868-100.284 79.838-40.311-39.253-83.763-66.697-124.041-78.336l68.267-108.817h-204.8l65.126 108.544c-40.926 11.742-83.217 41.609-121.924 82.807-28.501-41.199-62.532-71.509-99.601-83.319l53.999-108.032h-170.667l53.453 106.94c-107.213 29.594-189.986 215.245-189.986 370.927 0 169.677 98.202 238.933 219.375 238.933 8.909 0 17.51-0.819 26.18-1.604 52.907 92.74 152.303 138.138 266.445 138.138 114.074 0 213.402-45.363 266.411-137.967 7.851 0.649 15.667 1.434 23.723 1.434 122.539 0 221.867-69.257 221.867-238.933 0-154.761-82.739-339.149-190.259-370.381zM204.8 563.268c0 37.683 4.642 71.68 13.107 102.298-83.183-0.478-150.391-39.39-150.391-170.564 0-131.959 67.994-307.2 151.859-307.2 34.133 0 65.638 29.082 90.965 72.363-61.269 85.333-105.54 197.837-105.54 303.104zM512 802.201c-140.493 0-238.933-92.023-238.933-238.933 0-169.677 124.041-375.467 238.933-375.467 114.859 0 238.933 205.79 238.933 375.467 0 152.61-92.74 238.933-238.933 238.933zM806.127 665.395c8.397-30.549 13.073-64.512 13.073-102.127 0-122.914-44.817-230.639-105.131-309.316 24.951-39.731 55.262-66.15 88.064-66.15 84.821 0 153.6 175.241 153.6 307.2 0 129.843-66.662 169.165-149.606 170.394zM386.389 508.177c-47.036 29.082-59.46 100.215-27.785 158.891 31.676 58.743 95.471 82.773 142.473 53.692 47.036-29.047 59.46-100.215 27.785-158.891-31.676-58.743-95.471-82.773-142.473-53.692zM468.309 660.036c-15.667 9.694-39.356-2.867-52.975-28.023-13.517-25.122-11.878-53.419 3.789-63.113 15.701-9.694 39.39 2.867 52.975 28.023s11.913 53.419-3.789 63.113z" />
<glyph unicode="&#xe635;" d="M852.036 56.32c261.734 181.316 163.533 570.709 105.267 728.166v170.667h-102.4l59.87-209.579c-18.876-113.186-78.541-294.775-264.67-438.955-173.943-134.724-467.763-96.7-580.267-102.4 6.212 0-8.055-0.444 0 0 5.837 0-86.016 5.632-68.267-68.301 38.298-159.539 498.722-323.379 850.466-79.599zM772.028 98.133c-330.889-203.742-644.676-33.587-691.302 31.642-9.148 12.868 43.588 7.475 39.287 7.475-5.871-0.307 4.54 0 0 0 88.030-1.502 392.499-19.558 565.419 102.912 215.177 152.371 261.939 338.125 261.939 338.125 14.199-82.193 41.37-346.726-175.343-480.154z" />
<glyph unicode="&#xe636;" d="M1023.317 716.663l-272.828-272.794 272.828-272.828-238.694-238.694-272.828 272.794-272.828-272.794-238.694 238.694 272.828 272.828-272.828 272.794 238.694 238.694 272.828-272.828 272.828 272.828 238.694-238.694zM95.778 171.042l143.189-143.223 225.109 225.109-143.223 143.189-225.075-225.075zM238.967 859.887l-143.189-143.223 685.875-688.026 143.223 143.223-685.909 688.026zM702.771 491.588l225.075 225.075-143.189 143.223-225.109-225.109 143.223-143.189z" />
<glyph unicode="&#xe637;" d="M955.494 819.268c-0.614 0-1.126 0.137-1.741 0.137 1.126-5.53 1.741-11.298 1.741-17.237 0-47.104-38.195-85.333-85.333-85.333-11.059 0-21.538 2.287-31.198 6.11l-350.686-350.686c35.977-46.251 57.617-104.243 57.617-167.356 0-150.801-122.266-273.067-273.067-273.067s-273.067 122.266-273.067 273.067 122.266 273.067 273.067 273.067c63.147 0 121.139-21.675 167.39-57.651l350.686 350.652c-3.789 9.694-6.076 20.173-6.076 31.198 0 47.172 38.195 85.367 85.333 85.367 5.905 0 11.674-0.649 17.237-1.741 0 0.58-0.171 1.126-0.171 1.741 0 37.683 30.583 68.267 68.267 68.267s68.267-30.583 68.267-68.267c0-37.717-30.549-68.267-68.267-68.267zM439.364 323.379l-124.928-124.928 48.026-48.026-48.026-48.026-144.111 144.111 48.026 48.026 48.026-48.026 124.928 124.928c-33.485 23.859-74.206 38.263-118.511 38.263-113.084 0-204.8-91.716-204.8-204.8s91.716-204.8 204.8-204.8 204.8 91.716 204.8 204.8c0.034 44.305-14.336 84.958-38.229 118.477z" />
<glyph unicode="&#xe638;" d="M-0.034 136.567v614.332h1024v-614.332h-1024zM921.566 682.666c-18.876 0-34.133-15.292-34.133-34.167 0-18.842 15.258-34.099 34.133-34.099s34.133 15.258 34.133 34.099c0 18.876-15.258 34.167-34.133 34.167zM921.566 546.133c-56.525 0-102.4 45.841-102.4 102.366 0 12.049 2.458 23.45 6.281 34.167h-626.961c3.789-10.718 6.281-22.118 6.281-34.167 0-56.525-45.841-102.366-102.4-102.366-12.049 0-23.415 2.458-34.133 6.281v-217.293c10.718 3.755 22.084 6.246 34.133 6.246 56.559 0 102.4-45.841 102.4-102.4 0-12.049-2.458-23.45-6.281-34.133h626.927c-3.789 10.684-6.281 22.084-6.281 34.133 0 56.559 45.875 102.4 102.4 102.4 12.049 0 23.415-2.458 34.133-6.246v217.293c-10.684-3.823-22.050-6.281-34.099-6.281zM68.233 648.499c0-18.842 15.292-34.099 34.133-34.099s34.133 15.258 34.133 34.099c0 18.876-15.292 34.167-34.133 34.167s-34.133-15.292-34.133-34.167zM102.366 204.8c18.842 0 34.133 15.292 34.133 34.133s-15.292 34.133-34.133 34.133-34.133-15.292-34.133-34.133 15.292-34.133 34.133-34.133zM955.699 238.933c0 18.842-15.258 34.133-34.133 34.133s-34.133-15.292-34.133-34.133 15.258-34.133 34.133-34.133 34.133 15.292 34.133 34.133zM785.033 409.6c-18.876 0-34.133 15.292-34.133 34.099 0 18.876 15.258 34.167 34.133 34.167s34.133-15.292 34.133-34.167c0-18.807-15.258-34.099-34.133-34.099zM511.966 307.2c-75.401 0-136.533 61.099-136.533 136.499 0 75.435 61.133 136.567 136.533 136.567s136.533-61.133 136.533-136.567c0-75.401-61.133-136.499-136.533-136.499zM511.966 511.966c-37.683 0-68.267-30.549-68.267-68.267 0-37.683 30.583-68.233 68.267-68.233s68.267 30.583 68.267 68.233c0 37.717-30.549 68.267-68.267 68.267zM238.899 409.6c-18.842 0-34.133 15.292-34.133 34.099 0 18.876 15.292 34.167 34.133 34.167s34.133-15.292 34.133-34.167c0-18.807-15.292-34.099-34.133-34.099z" />
<glyph unicode="&#xe639;" d="M-0.034 136.567v614.332h1024v-614.332h-1024zM102.366 204.8c18.842 0 34.133 15.292 34.133 34.133s-15.292 34.133-34.133 34.133-34.133-15.292-34.133-34.133 15.292-34.133 34.133-34.133zM102.366 682.666c-18.842 0-34.133-15.292-34.133-34.167 0-18.842 15.292-34.099 34.133-34.099s34.133 15.258 34.133 34.099c0 18.876-15.292 34.167-34.133 34.167zM921.566 682.666c-18.876 0-34.133-15.292-34.133-34.167 0-18.842 15.258-34.099 34.133-34.099s34.133 15.258 34.133 34.099c0 18.876-15.258 34.167-34.133 34.167zM955.699 552.414c-10.718-3.789-22.084-6.281-34.133-6.281-56.525 0-102.4 45.841-102.4 102.366 0 12.049 2.458 23.45 6.281 34.167h-626.961c3.823-10.718 6.281-22.118 6.281-34.167 0-56.525-45.841-102.366-102.4-102.366-12.049 0-23.415 2.458-34.133 6.281v-217.293c10.718 3.755 22.084 6.246 34.133 6.246 56.559 0 102.4-45.841 102.4-102.4 0-12.049-2.458-23.45-6.281-34.133h626.927c-3.789 10.684-6.281 22.084-6.281 34.133 0 56.559 45.875 102.4 102.4 102.4 12.049 0 23.415-2.458 34.133-6.246v217.293zM921.566 273.066c-18.876 0-34.133-15.292-34.133-34.133s15.258-34.133 34.133-34.133 34.133 15.292 34.133 34.133-15.258 34.133-34.133 34.133zM785.033 409.6c-18.876 0-34.133 15.292-34.133 34.099 0 18.876 15.258 34.167 34.133 34.167s34.133-15.292 34.133-34.167c0-18.807-15.258-34.099-34.133-34.099zM523.776 461.312c18.261-4.847 56.9-26.317 56.9-72.055 0-48.026-24.542-79.974-70.007-83.695l-0.375-32.495h-29.833v31.027c-23.586 2.867-57.993 10.411-61.918 61.713h31.334c1.092-15.633 15.292-30.515 30.891-28.57v102.468c-50.483 12.698-71.509 28.331-71.509 71.851 0 45.022 29.423 69.734 70.554 72.294l0.649 30.549h29.833l0.41-29.901c33.997-3.857 58.402-24.098 62.123-62.020h-30.447c-2.765 16.384-15.77 26.453-32.597 29.559v-84.753l13.995-5.973zM509.781 338.227c26.829 2.185 38.741 16.555 38.741 48.606 0 21.47-12.595 36.011-38.741 43.827v-92.433zM479.812 552.209c-22.903-2.628-38.366-9.011-38.366-37.274 0-26.419 14.37-34.645 38.366-42.086v79.36zM238.899 409.6c-18.842 0-34.133 15.292-34.133 34.099 0 18.876 15.292 34.167 34.133 34.167s34.133-15.292 34.133-34.167c0-18.807-15.292-34.099-34.133-34.099z" />
<glyph unicode="&#xe63a;" d="M990.549 136.533v614.4h34.133v-614.4h-34.133zM854.016 750.933h68.267v-614.4h-68.267v614.4zM751.616 750.933h34.133v-614.4h-34.133v614.4zM649.216 750.933h34.133v-614.4h-34.133v614.4zM546.816 750.933h34.133v-614.4h-34.133v614.4zM410.283 750.933h68.267v-614.4h-68.267v614.4zM239.616 750.933h102.4v-614.4h-102.4v614.4zM137.216 750.933h34.133v-614.4h-34.133v614.4zM0.683 750.933h68.267v-614.4h-68.267v614.4z" />
<glyph unicode="&#xe63b;" d="M631.671 478.105c1.946 0 0-1.707 0 0 2.048-2.082 0-17.749 0 0 0-81.306-40.687-153.020-102.741-196.198l40.482-147.456-60.86-16.418-37.103 134.724c-24.678-8.636-51.098-13.551-78.711-13.551-27.546 0-53.862 4.915-78.507 13.483l-91.58-320.956-69.393 17.408 96.393 337.92c-58.095 43.554-95.881 112.811-95.881 191.044v68.267h409.6v409.6h68.267c131.959 0 238.933-106.974 238.933-238.933s-106.94-238.933-238.899-238.933zM222.071 478.105c0-94.242 76.39-170.667 170.667-170.667s170.667 76.425 170.667 170.667c-51.166 0-287.983 0-341.333 0zM631.671 887.705v-341.333c94.276 0 170.667 76.425 170.667 170.667 0 94.276-76.39 170.667-170.667 170.667zM153.805 682.905h341.333v-68.267h-341.333v68.267zM563.405 68.505c37.683 0 68.267-30.583 68.267-68.267s-30.583-68.267-68.267-68.267-68.267 30.583-68.267 68.267 30.549 68.267 68.267 68.267z" />
<glyph unicode="&#xe63c;" d="M685.739 275.251c-0.205 0-0.171-0.171-0.375-0.171 0.102-0.956-0.341-1.98-2.765-1.98 0-188.484-152.815-341.333-341.333-341.333s-341.333 152.849-341.333 341.333v68.267h614.4v614.4h68.267c186.778 0 341.333-154.795 341.333-341.879 0-186.982-151.381-338.637-338.193-338.637zM68.198 273.135c0-150.801 122.266-273.067 273.067-273.067s273.067 122.266 273.067 273.067h-546.133zM682.598 273.135c0 0.512 0.205 0.478 0.239 0.819-0.034-0.034-0.205-0.034-0.239-0.102v-0.717zM682.598 887.535c0-31.061 0-226.748 0-546.133 149.402 0 273.715 122.914 273.715 272.521 0 149.675-124.314 273.613-273.715 273.613zM238.865 204.868h204.8v-68.267h-204.8v68.267zM68.198 477.935h477.867v-68.267h-477.867v68.267zM477.798 751.001c71.646-103.799 0-238.933 0-238.933s25.6 48.811-34.133 170.667c-106.667 217.6 68.267 273.067 68.267 273.067s-118.579-82.432-34.133-204.8zM307.132 751.001c71.646-103.799 0-238.933 0-238.933s25.6 48.811-34.133 170.667c-106.667 217.6 68.267 273.067 68.267 273.067s-118.579-82.432-34.133-204.8zM136.465 751.001c71.646-103.799 0-238.933 0-238.933s25.6 48.811-34.133 170.667c-106.667 217.6 68.267 273.067 68.267 273.067s-118.579-82.432-34.133-204.8z" />
<glyph unicode="&#xe63d;" d="M956.416 477.832v-546.099h-887.467v546.099h-68.267v68.335h1024v-68.335h-68.267zM888.149 477.832h-750.933v-477.867h750.933v477.867zM464.213 201.762l207.599 207.565 45.431-45.431-258.492-258.526-150.323 150.323 50.927 50.927 104.858-104.858zM565.999 906.683l49.084 49.050 238.933-341.333h-83.968l-204.049 292.284zM171.349 614.4l238.933 341.333 49.084-49.050-202.991-292.284h-85.026z" />
<glyph unicode="&#xe63e;" d="M956.416 443.733v-512h-887.467v512h-68.267v68.267h1024v-68.267h-68.267zM273.749 443.733h-136.533v-102.4h136.533v102.4zM273.749 273.066h-136.533v-102.4h136.533v102.4zM273.749 102.4h-136.533v-102.366h136.533v102.366zM478.549 443.733h-136.533v-102.4h136.533v102.4zM478.549 273.066h-136.533v-102.4h136.533v102.4zM478.549 102.4h-136.533v-102.366h136.533v102.366zM683.349 443.733h-136.533v-102.4h136.533v102.4zM683.349 273.066h-136.533v-102.4h136.533v102.4zM683.349 102.4h-136.533v-102.366h136.533v102.366zM888.149 443.733h-136.533v-102.4h136.533v102.4zM888.149 273.066h-136.533v-102.4h136.533v102.4zM888.149 102.4h-136.533v-102.366h136.533v102.366zM565.999 906.683l49.084 49.050 238.933-375.467h-83.968l-204.049 326.417zM171.349 580.266l238.933 375.467 49.084-49.050-202.991-326.417h-85.026z" />
<glyph unicode="&#xe63f;" d="M512-68.267c-282.761 0-512 229.274-512 512.034 0 282.726 229.239 512 512 512s512-229.274 512-512c0-282.761-229.239-512.034-512-512.034zM201.421 127.522c32.836 44.681 95.198 146.193 104.516 282.112h-236.032c8.431-110.285 57.207-209.101 131.516-282.112zM69.905 477.9h235.998c-9.387 134.997-71.987 235.998-105.54 281.054-73.728-72.806-122.095-171.281-130.458-281.054zM477.867 885.76c-84.343-6.417-161.929-36.625-226.441-83.593 31.334-44.851 111.65-173.329 122.675-324.267h103.765v407.859zM477.867 409.634h-103.765c-10.889-152.61-91.102-279.859-122.573-324.369 64.512-46.933 142.029-77.107 226.338-83.524v407.893zM954.061 409.634h-232.96c9.421-131.959 70.929-231.287 105.882-277.811 71.817 72.499 118.852 169.711 127.078 277.811zM546.133 1.74c85.879 6.588 164.591 37.751 229.786 86.187-33.963 46.524-114.79 171.725-125.952 321.707h-103.834v-407.893zM546.133 477.9h103.868c11.264 148.275 92.194 274.637 126.054 321.57-65.229 48.503-144.009 79.77-229.922 86.289v-407.859zM827.972 754.585c-35.669-46.967-97.314-145.749-106.837-276.685h232.926c-8.192 107.554-54.818 204.254-126.089 276.685z" />
<glyph unicode="&#xe640;" d="M983.927 719.872c0 0-662.63-570.266-790.528-693.794l46.694-46.66-47.821-47.855-191.351 191.386 47.821 47.821 46.626-46.626c123.221 127.898 693.009 791.45 693.009 791.45 53.999 54.033 141.517 54.033 195.55 0 53.999-54.067 53.999-141.653 0-195.721zM157.389 62.156c28.126 25.975 81.442 74.615 147.456 134.724l-38.229 38.195c-59.972-66.15-108.51-119.569-134.417-147.729l25.19-25.19zM935.083 866.679c-26.999 27.034-70.793 27.034-97.792 0 0 0-312.593-346.658-527.462-583.851l42.598-42.633c236.783 215.313 582.656 528.657 582.656 528.657 26.999 26.999 26.999 70.793 0 97.826z" />
<glyph unicode="&#xe641;" d="M955.733 341.333v-68.233c0-114.551-70.622-212.582-170.667-253.030v-88.337h-68.267v70.622c-11.196-1.399-22.528-2.355-34.133-2.355h-341.333c-11.605 0-22.938 0.956-34.133 2.355v-70.622h-68.267v88.337c-100.045 40.482-170.667 138.479-170.667 253.030v68.233h-68.267v68.301h1024v-68.301h-68.267zM887.467 341.231c-14.677-0.034-14.336-0.205 0 0.102h-750.933c0.375 0 0.717 0 1.058-0.034 0.034-36.25-1.058-68.198-1.058-68.198 0-113.118 91.716-204.834 204.8-204.834h341.333c113.084 0 204.8 91.75 204.8 204.834v68.13zM341.333 785.066v0 0.478h-0.034c-0.273 56.354-45.978 101.956-102.366 101.956-56.559 0-102.4-45.875-102.4-102.434-0.546-3.413 2.594-1.024 0-0.068v-307.132h-68.267v307.2c0 94.276 76.39 170.667 170.667 170.667s170.667-76.39 170.667-170.667l102.4-68.267h-273.067l102.4 68.267zM341.299 785.544c0-0.171 0.034-0.307 0.034-0.478-11.503 0.41-7.373 0.512-0.034 0.478z" />
<glyph unicode="&#xe642;" d="M887.91 443.835c-32.734-12.732-34.133-68.267-34.133-68.267h-0.307c0 0 3.55-57.685 33.963-68.267 154.112-53.589 135.919-192.034 135.919-192.034h1.058c0 0-4.267-183.467-238.933-183.467-192.341 0-256 157.867-256 157.867l51.2 46.933c0 0 53.35-137.626 204.8-136.533 157.867 1.161 168.55 119.467 168.55 119.467h-0.751c0 0 9.25 92.843-65.843 119.501-105.404 37.444-101.922 136.533-101.922 136.533s-3.482 99.055 102.4 136.533c75.401 26.658 68.267 119.467 68.267 119.467s-12.8 118.272-170.667 119.467c-102.4 0.751-130.15-38.434-130.15-38.434l-27.75 61.884c0 0 38.059 45.773 155.75 44.817 241.084-2.014 241.084-185.617 241.084-185.617s16.145-130.594-136.533-189.85zM267.196 9.728c-37.513-11.913-96.085-9.626-96.085-9.626s-170.667 22.050-170.667 204.834c0 76.766 42.325 143.599 104.823 178.654 17.852 10.786 67.789 33.485 65.843 94.379-2.082 64.683-49.766 83.319-65.946 94.515-62.498 35.089-104.755 101.854-104.755 178.586 0 182.784 170.667 204.8 170.667 204.8h34.133c0 0 4.471-0.034 12.083-0.649 19.9-1.161 34.133-4.574 29.525-3.618 97.997-16.145 369.527-94.242 367.991-473.6-1.399-347.955-241.391-442.573-347.614-468.275zM215.893 887.569l-0.341-1.024c-3.482 0.273-6.793 1.024-10.308 1.024-75.401 0-136.533-61.133-136.533-136.533 0-51.439 28.774-95.676 70.758-118.955 28.74-18.842 104.482-86.46 99.908-154.146-2.867-42.598-4.233-94.857-86.596-147.046-49.357-20.582-84.070-69.188-84.070-125.986 0-75.401 61.133-136.567 136.533-136.567h24.542c0 0 312.252 19.285 316.826 409.6 4.471 388.369-330.718 409.634-330.718 409.634z" />
<glyph unicode="&#xe643;" d="M1023.966 238.933h-102.4v-136.533h-68.267v136.533h-682.667v-136.533h-68.267v136.533h-102.4v341.333h102.4c-1.775 0 0 3.55 0.068 5.291 2.799 110.66 93.389 199.509 204.732 199.509 105.813 0 191.932-80.486 202.718-183.433h4.13c10.82 102.946 96.939 183.433 202.752 183.433 110.933 0 201.216-88.269 204.595-198.417h2.321v-6.383h100.284v-341.333zM443.597 585.557c-2.799 73.011-62.805 131.243-136.431 131.243s-133.666-58.3-136.431-131.243c0-0.307-0.171-0.717-0.239-1.024h0.137v-4.267c0 0 159.198 0 1.434 0-0.512 0-0.887 0-1.434 0v0c0.444 0 0.956 0 1.434 0 95.778-1.434 202.854-1.058 271.053-0.614l0.205 0.614 0.853 2.731c-0.239 0.922-0.546 1.911-0.58 2.56zM716.766 716.8c-73.66 0-133.666-58.3-136.431-131.277-0.068-1.707-1.877-5.222-0.102-5.257h-2.15c1.058 0 2.185 0 3.277 0 21.709-0.444 271.94 0 271.94 0v0 0 0c-71.339 0.546-70.758 0.341 0 0.478v4.233c-0.034 0.205-0.102 0.444-0.102 0.614-2.765 72.909-62.805 131.209-136.431 131.209zM955.699 512h-887.467v-204.766h887.467v204.766zM581.359 580.266c-0.41 0-0.717 0-1.126 0 0 0 157.901 0 1.126 0z" />
<glyph unicode="&#xe644;" d="M751.036 68.3v0-136.567h-682.667v853.367c0 0-7.919 84.378 65.058 121.617 84.241 42.94 139.742-19.251 139.742-19.251s33.792 69.086 136.533 68.267c104.175-0.853 136.533-68.267 136.533-68.267s39.492 61.645 137.591 18.125c73.455-32.597 67.209-120.525 67.209-120.525v-136.533c113.084 0 204.8-91.716 204.8-204.8v-170.633c0-113.118-91.716-204.8-204.8-204.8zM614.502 853.367c-56.388 0.819-102.4-68.267-102.4-68.267s-11.913 102.4-102.4 102.4c-89.463 0-102.4-102.4-102.4-102.4s-51.712 67.789-102.4 68.267c-75.537 0.717-68.267-68.267-68.267-68.267h546.133c0 0 1.092 67.243-68.267 68.267zM136.636 716.8v-716.8h546.133v716.8h-546.133zM887.569 443.733c0 75.401-61.133 136.533-136.533 136.533v0-443.733c75.401 0 136.533 61.099 136.533 136.567v170.633zM546.236 648.567h68.267v-580.267h-68.267v580.267zM375.569 648.567h68.267v-580.267h-68.267v580.267zM204.902 648.567h68.267v-580.267h-68.267v580.267z" />
<glyph unicode="&#xe645;" d="M956.416 546.577v409.6h68.267v-409.6h-68.267zM819.883 171.076h-614.4v-238.933h-68.267v443.767h136.533v273.033h68.267v-273.033h341.333v273.033h68.267v-273.033h136.533v-443.767h-68.267v238.933zM819.883 307.609h-614.4v-68.267h614.4v68.267zM888.149 546.577h-68.267v170.633h-614.4v-170.633h-68.267v409.6h68.267v-170.667h614.4v170.667h68.267v-409.6zM0.683 956.177h68.267v-409.6h-68.267v409.6z" />
<glyph unicode="&#xe646;" d="M717.483 648.635c56.525 0 102.4 45.841 102.4 102.4 0 56.593-45.875 102.4-102.4 102.4s-102.4-45.841-102.4-102.4c0-56.559 45.841-102.4 102.4-102.4zM717.483 785.203c18.876 0 34.133-15.292 34.133-34.133s-15.258-34.133-34.133-34.133-34.133 15.292-34.133 34.133 15.258 34.133 34.133 34.133zM625.493 512.58l23.689-0.478h136.533v68.267h-128.239l-101.922 101.956-206.473-220.843 129.434-128.375v-196.471h68.267v204.766l-0.478 27.955-97.246 97.28 110.729 111.616 65.707-65.673zM205.483 443.835c-113.084 0-204.8-91.682-204.8-204.766 0-113.118 91.716-204.834 204.8-204.834s204.8 91.716 204.8 204.834c0 113.084-91.716 204.766-204.8 204.766zM205.483 102.502c-75.401 0-136.533 61.133-136.533 136.567 0 75.366 61.133 136.499 136.533 136.499s136.533-61.133 136.533-136.499c0-75.435-61.133-136.567-136.533-136.567zM819.883 443.835c-113.084 0-204.8-91.682-204.8-204.766 0-113.118 91.716-204.834 204.8-204.834s204.8 91.716 204.8 204.834c0 113.084-91.716 204.766-204.8 204.766zM819.883 102.502c-75.401 0-136.533 61.133-136.533 136.567 0 75.366 61.133 136.499 136.533 136.499s136.533-61.133 136.533-136.499c0-75.435-61.133-136.567-136.533-136.567z" />
<glyph unicode="&#xe647;" d="M171.349 119.569c82.569 0 151.415 58.675 167.219 136.567h77.961c14.131-39.697 51.61-68.267 96.119-68.267 56.525 0 102.4 45.841 102.4 102.4 0 12.288-2.526 23.893-6.485 34.85l117.999 195.618 38.502-85.47c-48.879-30.003-81.749-83.456-81.749-145.033 0-94.276 76.39-170.701 170.667-170.701s170.667 76.425 170.667 170.701c0 94.242-76.39 170.667-170.667 170.667-9.591 0-18.876-1.297-28.058-2.833l-142.575 310.067h-170.667v-68.267h133.154l47.172-104.619-318.908-60.211-36.693 62.43h38.741v68.267h-204.8v-68.267h89.088l65.331-111.206-50.244-61.303c-28.877 22.357-64.853 35.977-104.209 35.977-94.242 0-170.667-76.425-170.667-170.667 0.034-94.276 76.425-170.701 170.701-170.701zM956.416 290.27c0-56.559-45.875-102.4-102.4-102.4s-102.4 45.841-102.4 102.4c0 33.792 16.555 63.488 41.813 82.159l37.137-82.33 57.617 34.304-32.017 68.028c55.501-1.195 100.25-46.353 100.25-102.161zM512.683 256.136c-18.876 0-34.133 15.292-34.133 34.133s15.258 34.133 34.133 34.133 34.133-15.292 34.133-34.133-15.292-34.133-34.133-34.133zM640.683 515.242l-81.067-134.417c-14.131 7.305-29.935 11.878-46.933 11.878-17.374 0-33.587-4.471-47.855-12.117l-54.511 92.809 230.366 41.847zM357.035 432.981l61.338-104.414c-0.614-1.434-1.331-2.731-1.877-4.164h-77.926c-4.335 21.299-12.902 40.96-24.371 58.573l42.837 50.005zM171.349 392.67c22.938 0 43.964-7.748 60.928-20.514l-95.061-116.019h130.253c-14.097-39.697-51.61-68.267-96.119-68.267-56.559 0-102.4 45.841-102.4 102.4s45.841 102.4 102.4 102.4z" />
<glyph unicode="&#xe648;" d="M512 955.767c-282.761 0-512-229.239-512-512s229.239-512.034 512-512.034c282.761 0 512 229.274 512 512.034s-229.239 512-512 512zM512 887.5c245.077 0 443.733-198.656 443.733-443.733s-198.656-443.733-443.733-443.733-443.733 198.622-443.733 443.733c0 245.077 198.656 443.733 443.733 443.733zM512 750.967c-169.677 0-307.2-137.557-307.2-307.2s137.523-307.2 307.2-307.2c169.677 0 307.2 137.557 307.2 307.2s-137.523 307.2-307.2 307.2zM512 682.7c131.925 0 238.933-106.974 238.933-238.933 0-131.994-107.008-238.933-238.933-238.933-131.959 0-238.933 106.974-238.933 238.933 0 131.994 106.974 238.933 238.933 238.933zM587.81 443.767c16.35 18.159 26.59 41.95 26.59 68.267 0 56.559-45.875 102.366-102.4 102.366-56.559 0-102.4-45.773-102.4-102.366 0-26.317 10.24-50.108 26.556-68.267-16.316-18.125-26.556-41.916-26.556-68.267 0-56.559 45.841-102.4 102.4-102.4 56.525 0 102.4 45.841 102.4 102.4 0 26.351-10.24 50.142-26.59 68.267zM512 409.634c18.876 0 34.133-15.292 34.133-34.133s-15.258-34.133-34.133-34.133c-18.842 0-34.133 15.258-34.133 34.133s15.292 34.133 34.133 34.133zM512 546.201c18.876 0 34.133-15.292 34.133-34.133s-15.258-34.133-34.133-34.133c-18.842 0-34.133 15.292-34.133 34.133s15.292 34.133 34.133 34.133z" />
<glyph unicode="&#xe649;" d="M955.733 751.001l-68.267-819.2h-750.933l-32.154 385.741-1.502 1.502 1.263 1.263-35.874 430.694h-68.267v204.8h1024v-204.8h-68.267zM859.477 414.822l20.753 249.378-135.066-135.066 114.313-114.313zM529.067 654.37l-125.235-125.235 125.235-125.235 125.235 125.235-125.235 125.235zM534.835 751.001h-11.537l5.769-5.769 5.769 5.769zM163.43 428.168l24.303-24.269 125.235 125.235-172.305 172.305 22.767-273.271zM529.067 313.036l-125.235-125.235 125.235-125.235 125.235 125.235-125.235 125.235zM699.733 233.199l125.235 125.269-125.235 125.235-125.235-125.235 125.235-125.269zM483.635 358.468l-125.235 125.235-125.235-125.235 125.235-125.269 125.235 125.269zM358.4 574.566l125.235 125.235-51.2 51.2h-250.47l176.435-176.435zM699.733 574.566l176.435 176.435h-250.47l-51.2-51.2 125.235-125.235zM849.203 291.84l-104.038-104.038 88.030-88.030 16.009 192.068zM824.866 0.068l1.331 15.838-126.464 126.464-125.235-125.269 17.067-17.033h233.301zM466.569 0.068l17.067 17.033-125.235 125.269-142.302-142.302h250.47zM193.434 68.232l119.535 119.569-125.235 125.235-13.551-13.551 19.251-231.253zM955.733 887.535h-887.467v-68.267h887.467v68.267z" />
<glyph unicode="&#xe64a;" d="M614.4-68.267v341.299h-204.8v-341.299h-409.6v819.234h68.267v204.732h273.067v-204.732h68.267v-204.834h204.8v204.834h68.267v204.732h273.067v-204.732h68.267v-819.234h-409.6zM273.067 887.466h-136.533v-136.499h136.533v136.499zM341.333 682.666h-273.067v-477.833h273.067v477.833zM341.333 136.499h-273.067v-136.533h273.067v136.533zM614.4 477.866h-204.8v-136.533h204.8v136.533zM887.467 887.466h-136.533v-136.499h136.533v136.499zM955.733 682.666h-273.067v-477.833h273.067v477.833zM955.733 136.499h-273.067v-136.533h273.067v136.533z" />
<glyph unicode="&#xe64b;" d="M717.244 546.543c-18.33-50.415-51.405-103.219-109.636-136.499 169.609-92.399 161.109-307.268 161.109-307.268v-170.667h-614.4v170.667c0 0-8.465 215.927 162.748 307.849-143.667 80.179-128.614 272.486-128.614 272.486v204.766h204.8v68.267h136.533v-68.267h204.8v-68.267h136.533v-273.067h-153.873zM222.583 102.809v-102.4h477.867v102.4c0 0-1.434 272.589-238.933 273.067-239.787 0.512-238.933-273.067-238.933-273.067zM666.317 683.11v136.499h-409.6v-136.499c0 0-16.657-240.913 204.8-238.933 215.586 0.171 204.8 238.933 204.8 238.933zM802.85 751.343h-68.267v-136.533h68.267v136.533zM529.783 136.977c0-37.717-30.583-68.301-68.267-68.301s-68.267 30.583-68.267 68.301c0 37.683 30.583 68.233 68.267 68.233s68.267-30.549 68.267-68.233z" />
<glyph unicode="&#xe64c;" d="M577.604 460.834l188.45 192.853-261.905 268.117-4.676-0.444v-375.433l-197.325 196.847-47.036-48.128 228.42-233.813-228.42-233.745 47.036-48.128 197.325 196.301v-409.6l10.274 0.171 259.106 299.349-191.249 195.652zM672.017 653.721l-104.277-107.759v204.8l104.277-97.041zM567.74 136.328v238.933l107.076-110.114-107.076-128.819z" />
<glyph unicode="&#xe64d;" d="M546.782 139.127v-138.991h136.533v-68.301h-341.333v68.301h136.533v138.65c-320.102 22.118-307.2 373.35-307.2 373.35h68.267c0 207.394 122.266 443.767 273.067 443.767 150.767 0 273.067-236.373 273.067-443.767h68.267c0-0.034 14.848-347.443-307.2-373.009zM717.414 517.461c-1.911 168.619-92.843 370.108-204.766 370.108-111.684 0-202.513-200.67-204.766-369.084-0.034-2.15-2.15-6.315-0.034-6.417 47.991-1.126 91.716 0 204.8 0s157.867-0.034 204.8 0c1.741 0.034 0 3.618-0.034 5.393zM239.582 443.87c0 0 16.384-238.421 273.067-238.967 258.423-0.546 273.067 238.967 273.067 238.967h-546.133z" />
<glyph unicode="&#xe64e;" d="M768.137 34.713h-512.273l-256.137 409.088 256.137 409.088h512.273l256.137-409.088-256.137-409.088zM728.678 784.691h-433.323l-214.528-340.89 214.528-340.89h434.381l210.227 340.89-211.285 340.89zM512 204.868c-131.959 0-238.933 106.974-238.933 238.933 0 131.925 106.974 238.933 238.933 238.933s238.933-107.008 238.933-238.933c0-131.959-106.974-238.933-238.933-238.933zM512 614.468c-94.276 0-170.667-76.425-170.667-170.667 0-94.276 76.39-170.701 170.667-170.701s170.667 76.425 170.667 170.701c0 94.242-76.39 170.667-170.667 170.667z" />
<glyph unicode="&#xe64f;" d="M854.016 443.767c94.242 0 170.667 76.39 170.667 170.633s-76.39 170.667-170.667 170.667c0 94.276-76.39 170.667-170.667 170.667s-170.667-76.425-170.667-170.667c0-42.735 16.247-81.408 42.257-111.343l-272.282-272.247c-29.969 25.941-68.574 42.257-111.343 42.257-94.242 0-170.667-76.425-170.667-170.701 0-94.242 76.425-170.633 170.667-170.633 0-94.276 76.39-170.701 170.667-170.701s170.667 76.425 170.667 170.701c0 42.735-16.247 81.374-42.257 111.309l272.282 272.282c29.969-25.941 68.574-42.223 111.343-42.223zM854.016 512.034c-47.923 0-87.859 33.041-98.987 77.517l-388.164-388.164c44.476-11.127 77.517-51.063 77.517-98.953 0-56.559-45.875-102.4-102.4-102.4s-102.4 45.841-102.4 102.4c0 27.034 10.684 51.439 27.785 69.7l-26.317 26.317c-18.261-17.101-42.667-27.785-69.7-27.785-56.559 0-102.4 45.875-102.4 102.4 0 56.559 45.841 102.4 102.4 102.4 47.923 0 87.825-33.041 98.987-77.517l388.13 388.13c-44.476 11.162-77.517 51.098-77.517 98.987 0 56.559 45.875 102.4 102.4 102.4s102.4-45.841 102.4-102.4c0-27.068-10.684-51.439-27.785-69.734l26.317-26.317c18.261 17.101 42.701 27.819 69.734 27.819 56.525 0 102.4-45.875 102.4-102.434 0-56.525-45.875-102.366-102.4-102.366z" />
<glyph unicode="&#xe650;" d="M1024.034-68.267h-887.467c-73.626 0-133.632 58.3-136.431 131.243-0.068 1.741-1.877 5.325-0.102 5.325v750.899c0 75.401 61.133 136.533 136.533 136.533h887.467c-0.137-38.195-0.137-56.593-0.137-68.267h-887.33c-37.683 0-68.267-30.583-68.267-68.267s30.583-68.267 68.267-68.267h887.467c0 39.868 0 32.051 0 68.267 0 323.686 1.536-657.988 0-887.467zM955.767 682.666h-819.2c-24.986 0-48.128 7.202-68.267 18.944v-633.31c-2.116 0 0.102-4.233 0.273-6.349 3.209-34.714 32.427-61.952 67.994-61.952h819.2v682.667zM1024.034 887.466c0-33.314 0-54.067 0-68.267 0 47.889-0.137 47.957-0.137 68.267h0.137z" />
<glyph unicode="&#xe651;" d="M1023.829 78.711l-477.696-146.978h-68.267v0.58l-0.171-0.273-477.525 146.671-0.171 877.022 34.304-0.307 459.913-136.226h35.567l459.913 136.26 34.304 0.273-0.171-877.022zM477.867 751.479l-0.171-0.239-409.429 114.825v-736.085l409.6-122.402v743.902zM955.733 869.273l-409.6-117.794v-743.902l409.6 122.402v739.294z" />
<glyph unicode="&#xe652;" d="M887.398 887.5v-955.733l-79.94 0.341-295.526 295.595-295.526-295.595-79.94-0.341v955.733h-136.533v68.301h1024v-68.301h-136.533zM204.732 887.5v-876.1l295.526 295.526h23.347l295.526-295.526v876.1h-614.4z" />
<glyph unicode="&#xe653;" d="M1024.034-68.267h-887.467c-73.626 0-133.632 58.3-136.431 131.243-0.068 1.741-1.877 5.325-0.102 5.325v750.899c0 75.401 61.133 136.533 136.533 136.533h887.467c-0.137-38.195-0.137-56.593-0.137-68.267h-887.33c-37.683 0-68.267-30.583-68.267-68.267s30.583-68.267 68.267-68.267h887.467c0 39.868 0 32.051 0 68.267 0 323.686 1.536-657.988 0-887.467zM546.167 682.666v-430.046l122.982 123.017h27.136l122.982-123.017v430.046h-273.101zM955.767 682.666h-68.267v-546.133h-47.548l-0.171-0.171-0.137 0.171-20.412 20.446-136.533 136.533-157.082-157.15-0.171 0.171h-47.548v546.133h-341.333c-24.986 0-48.128 7.202-68.267 18.944v-633.31c-2.116 0 0.102-4.233 0.273-6.349 3.174-34.714 32.393-61.952 67.994-61.952h819.2v682.667zM1024.034 887.466c0-33.314 0-54.067 0-68.267 0 47.889-0.137 47.957-0.137 68.267h0.137z" />
<glyph unicode="&#xe654;" d="M17.033 819.268v-887.501h204.8v887.501h-204.8zM85.299 751.001h68.267v-750.933h-68.267v750.933zM290.099 955.801v-1024.034h204.8v1024.034h-204.8zM358.366 887.5h68.267v-887.433h-68.267v887.433zM563.2 904.158l253.986-972.902 189.679 52.122-254.054 972.937-189.611-52.156zM643.345 856.678l63.215 17.408 220.126-843.162-63.215-17.408-220.126 843.162z" />
<glyph unicode="&#xe655;" d="M273.033-68.267v477.901l136.533 170.667v238.933h204.8v-238.933l136.533-170.667v-477.901h-477.867zM682.633 384.034l-136.533 170.667v196.233h-68.267v-195.174l-136.533-170.633v-385.092h341.333v384zM511.966 409.634c56.559 0 102.4-68.779 102.4-153.6s-45.841-153.6-102.4-153.6-102.4 68.779-102.4 153.6 45.841 153.6 102.4 153.6zM511.966 170.7c18.842 0 34.133 38.195 34.133 85.333s-15.292 85.299-34.133 85.299c-18.876 0-34.133-38.161-34.133-85.299s15.258-85.333 34.133-85.333zM375.433 955.767h273.067v-68.267h-273.067v68.267z" />
<glyph unicode="&#xe656;" d="M580.233-68.267h-136.533c0 0-168.892 104.004-170.667 375.501-0.887 135.885 136.533 204.8 136.533 204.8v443.733h204.8v-443.733c0 0 137.421-68.915 136.533-204.8-1.775-271.497-170.667-375.501-170.667-375.501zM546.099 887.466h-68.267v-102.4h68.267v102.4zM682.633 307.234c-5.666 111.582-136.533 170.667-136.533 170.667v238.899h-68.267v-238.933c0 0-130.901-59.085-136.533-170.667-10.138-200.226 121.617-307.2 121.617-307.2h98.133c0 0.034 131.721 107.008 121.583 307.234z" />
<glyph unicode="&#xe657;" d="M273.033-68.267v477.901l136.533 170.667v238.933h204.8v-238.933l136.533-170.667v-477.901h-477.867zM682.633 384.034l-136.533 170.667v196.233h-68.267v-195.174l-136.533-170.633v-43.793h341.333v42.701zM682.633 273.135h-341.333v-136.567h341.333v136.567zM682.633 68.3h-341.333v-68.267h341.333v68.267zM375.433 955.767h273.067v-68.267h-273.067v68.267z" />
<glyph unicode="&#xe658;" d="M512-68.267c-282.761 0-512 229.205-512 511.966 0 282.795 229.239 512 512 512s512-229.205 512-512c0-282.761-229.239-511.966-512-511.966zM512 887.466c-245.077 0-443.733-198.656-443.733-443.767 0-245.043 198.656-443.699 443.733-443.699s443.733 198.656 443.733 443.699c0 245.111-198.656 443.767-443.733 443.767zM614.4 204.766v68.301l-225.69 0.546 362.257 361.95-47.138 47.138-362.496-363.759v227.191h-68.267v-341.333l341.333-0.034z" />
<glyph unicode="&#xe659;" d="M375.467 0l-259.823 0.478 73.728 73.455 834.628 834.697-47.138 47.104-908.595-909.926v261.393h-68.267v-375.467h375.467v68.267z" />
<glyph unicode="&#xe65a;" d="M0.546-67.38h511.829l20.412-0.717 36.147 38.263-165.171 164.898 620.373 622.421-198.144 198.042-622.831-619.964-165.001 165.069-38.298-36.147 0.683-531.866zM203.196 239.684l622.831 616.789 99.055-98.987-617.267-622.387 136.294-134.281h-375.33v375.091l134.417-136.226z" />
<glyph unicode="&#xe65b;" d="M512-68.267c-282.761 0-512 229.205-512 511.966 0 282.795 229.239 512 512 512s512-229.205 512-512c0-282.761-229.239-511.966-512-511.966zM512 887.466c-245.077 0-443.733-198.656-443.733-443.767 0-245.043 198.656-443.699 443.733-443.699s443.733 198.656 443.733 443.699c0 245.111-198.656 443.767-443.733 443.767zM409.6 204.766v68.301l225.655 0.546-362.223 361.95 47.138 47.138 362.496-363.759v227.191h68.267v-341.333l-341.333-0.034z" />
<glyph unicode="&#xe65c;" d="M648.567 0l259.789 0.478-73.694 73.455-834.697 834.662 47.172 47.138 908.629-909.892v261.359h68.267v-375.467h-375.467v68.267z" />
<glyph unicode="&#xe65d;" d="M1022.908-66.833h-511.317l-20.378-0.717-36.147 38.229 165.035 164.693-619.725 621.807 197.973 197.837 622.182-619.349 164.83 164.898 38.263-36.113-0.717-531.285zM820.497 239.889l-622.148 616.209-98.987-98.918 616.585-621.739-136.158-134.144h374.955v374.682l-134.246-136.090z" />
<glyph unicode="&#xe65e;" d="M648.533 307.2v-34.133h-273.067v34.133l-375.467-170.667c0 0 102.4 158.003 102.4 307.2 0 157.764-102.4 307.2-102.4 307.2l375.467-170.667v34.133h273.067v-34.133l375.467 170.667c0 0-102.4-151.484-102.4-307.166 0-151.415 102.4-307.2 102.4-307.2l-375.467 170.633zM375.467 409.6l-136.533 34.133 136.533 34.133v34.133l-238.933 102.4c0 0 34.133-68.983 34.133-170.667 0-103.151-34.133-170.667-34.133-170.667l238.933 102.4v34.133zM580.267 546.133h-136.533v-204.8h136.533v204.8zM887.467 614.4l-238.933-102.4v-34.133l136.533-34.133-136.533-34.133v-34.133l238.933-102.4c0 0-34.133 68.983-34.133 170.667 0 103.117 34.133 170.667 34.133 170.667z" />
<glyph unicode="&#xe65f;" d="M876.817 477.9c7.27 0 79.326 0 79.497 0 2.15 0-0.034-4.301-0.034-6.451-2.833-213.641-145.886-393.25-341.299-451.447v-88.269h-273.067v88.269c-195.413 58.231-338.5 237.807-341.299 451.447-0.034 2.15-2.15 6.417-0.034 6.417 62.566 0 855.211 0 803.942 0l165.717 307.132 54.067-33.758-147.49-273.34zM74.991 409.6c32.563-193.638 200.533-341.333 403.422-341.333s370.859 147.695 403.422 341.333h-806.844zM649.114 546.133c0 0 75.776 111.991 0 204.8-108.783 133.222 68.267 204.8 68.267 204.8s-78.985-102.775 0-204.8c105.711-136.602-68.267-204.8-68.267-204.8zM444.314 546.133c0 0 75.776 111.991 0 204.8-108.783 133.222 68.267 204.8 68.267 204.8s-78.985-102.775 0-204.8c105.711-136.602-68.267-204.8-68.267-204.8zM239.514 546.133c0 0 75.776 111.991 0 204.8-108.783 133.222 68.267 204.8 68.267 204.8s-78.985-102.775 0-204.8c105.711-136.602-68.267-204.8-68.267-204.8z" />
<glyph unicode="&#xe660;" d="M955.733 614.366v-682.633h-887.467v682.633h-68.267v341.367h1024v-341.367h-68.267zM136.533 0h750.933v614.366h-204.8v-170.633h-341.333v170.633h-204.8v-614.366zM614.4 614.366h-204.8v-102.366h204.8v102.366zM955.733 887.466h-887.467v-204.8h887.467v204.8z" />
<glyph unicode="&#xe661;" d="M546.748-34.85c-245.077 0-443.733 198.656-443.733 443.767v0c-26.010 0-50.108 0-68.267 0-3.584 0 0.034 7.134 0.102 10.684 5.598 274.295 226.85 495.548 501.077 501.214 3.584 0.068 10.786 3.686 10.786 0.137 0-12.971 0-38.775 0-68.267 245.077 0 443.733-198.656 443.733-443.733 0.034-245.111-198.656-443.802-443.699-443.802zM478.447 847.018c-190.225-29.491-340.343-179.541-369.766-369.835h69.222c28.058 152.576 148.036 272.521 300.578 300.612v69.222zM546.748 784.384c0-37.786 0-68.233 0-68.233h-9.728c-0.341-0.068-0.717-0.171-0.99-0.205-160.427-5.495-289.621-134.007-296.209-294.161 0-0.41-0.205-0.956-0.273-1.399v-11.469c-19.524 0-43.383 0-68.267 0v0c0-207.36 168.107-375.467 375.467-375.467s375.467 168.107 375.467 375.467c0 207.36-168.107 375.467-375.467 375.467zM546.748 169.984c-131.994 0-238.933 106.94-238.933 238.933 0 131.959 106.974 238.933 238.933 238.933 131.925 0 238.933-106.974 238.933-238.933 0-131.994-107.008-238.933-238.933-238.933zM546.748 579.618c-94.276 0-170.667-76.39-170.667-170.667s76.39-170.701 170.667-170.701c94.276 0 170.667 76.425 170.667 170.701s-76.425 170.667-170.667 170.667zM615.014 374.784c-18.876 0-34.133 15.258-34.133 34.133 0 18.842 15.258 34.133 34.133 34.133s34.133-15.292 34.133-34.133c0-18.842-15.292-34.133-34.133-34.133zM546.748 443.084c-18.876 0-34.133 15.258-34.133 34.099 0 18.876 15.258 34.133 34.133 34.133s34.133-15.258 34.133-34.133c0-18.842-15.292-34.099-34.133-34.099zM478.447 374.784c-18.876 0-34.133 15.258-34.133 34.133 0 18.842 15.258 34.133 34.133 34.133s34.133-15.292 34.133-34.133c0-18.842-15.258-34.133-34.133-34.133zM546.748 374.784c18.876 0 34.133-15.292 34.133-34.167 0-18.842-15.258-34.099-34.133-34.099s-34.133 15.258-34.133 34.099c-0.034 18.876 15.223 34.167 34.133 34.167z" />
<glyph unicode="&#xe662;" d="M99.908 31.061c-167.185 167.151-117.897 487.492 110.080 715.503 227.942 227.942 548.284 277.265 715.435 110.046 167.185-167.151 117.897-487.492-110.080-715.469-227.942-227.942-548.284-277.231-715.435-110.080zM877.431 808.584c-139.469 139.469-415.846 89.259-617.301-112.23-201.421-201.421-251.699-477.798-112.23-617.267s415.846-89.19 617.301 112.196c201.421 201.523 251.665 477.867 112.23 617.301zM478.549 443.835c-71.339 71.305-170.223 204.356-170.223 204.356s132.983-98.884 204.322-170.223c74.581-74.581 204.322-238.49 204.322-238.49s-163.874 129.809-238.421 204.356zM546.338 784.691c0 0 96.051-60.996 171.145-136.055 78.473-78.473 136.021-171.145 136.021-171.145s-91.716 58.573-170.155 137.045c-75.093 75.025-137.011 170.155-137.011 170.155zM478.993 103.048c0 0-92.672 57.583-171.145 136.021-75.059 75.025-136.021 171.145-136.021 171.145s95.095-61.952 170.155-137.011c78.473-78.507 137.011-170.155 137.011-170.155z" />
<glyph unicode="&#xe663;" d="M0-68.267v819.2h307.2v204.8h409.6v-204.8h307.2v-819.2h-1024zM204.8 682.666h-136.533v-682.667h136.533v682.667zM648.533 887.466h-273.067v-136.533h273.067v136.533zM273.067 682.666v-682.667h477.867v682.667h-477.867zM955.733 682.666h-136.533v-682.667h136.533v682.667z" />
<glyph unicode="&#xe664;" d="M0-68.267v819.2h307.2v204.8h409.6v-204.8h307.2v-819.2h-1024zM648.533 887.466h-273.067v-136.533h273.067v136.533zM955.733 682.666h-887.467v-682.667h887.467v682.667z" />
<glyph unicode="&#xe665;" d="M0-68.267v819.2h307.2v204.8h409.6v-204.8h307.2v-819.2h-1024zM648.533 887.466h-273.067v-136.533h273.067v136.533zM955.733 682.666h-887.467v-238.899h307.2v102.366h273.067v-102.366h307.2v238.899zM443.733 477.832v-136.465h136.533v136.465h-136.533zM955.733 375.466h-307.2v-102.4h-273.067v102.4h-307.2v-375.467h887.467v375.467z" />
<glyph unicode="&#xe666;" d="M512-68.267c-282.761 0-512 229.274-512 512 0 282.795 229.239 512 512 512s512-229.205 512-512c0-282.726-229.239-512-512-512zM512 887.466c-245.077 0-443.733-198.656-443.733-443.733s198.656-443.699 443.733-443.699 443.733 198.622 443.733 443.699c0 245.077-198.656 443.733-443.733 443.733zM307.2 238.933c25.020 7.748 32.768 17.852 44.783 34.748 12.015 16.93 23.484 39.049 23.484 67.652v68.267h-68.267v68.267l62.805 0.512v98.133c0 48.060 14.507 85.641 43.486 112.708s68.949 40.653 119.808 40.653c49.562 0 97.485-10.513 143.77-31.437l-29.15-69.769c-41.404 18.159-77.722 27.238-108.851 27.238-52.429-0.034-95.334-19.661-95.334-75.639v-102.4h170.667v-68.267h-170.667v-68.267c0-23.279-1.161-51.883-9.591-68.267-8.431-16.35-15.838-25.805-24.542-34.133h273.067v-68.267h-375.467v68.267z" />
<glyph unicode="&#xe667;" d="M1024.683 512.136c0-94.31-76.39-170.667-170.667-170.667 0 0-105.54-24.883-170.667-136.567-53.111-90.999-68.267-273.067-68.267-273.067h-204.8c0 0-14.609 181.077-68.267 273.067-64.751 111.002-170.667 136.567-170.667 136.567-94.242 0-170.667 76.356-170.667 170.667 0 82.671 58.812 151.552 136.875 167.253 0 1.161-0.341 2.253-0.341 3.413 0 94.242 76.425 170.667 170.667 170.667 16.009 0 31.232-2.901 45.943-7.031 24.644 63.863 86.255 109.431 158.857 109.431s134.212-45.568 158.857-109.431c14.711 4.096 29.901 7.031 45.943 7.031 94.276 0 170.667-76.425 170.667-170.667 0-1.161-0.341-2.253-0.341-3.413 78.063-15.701 136.875-84.582 136.875-167.253zM854.016 614.536c-15.701 0-30.447-3.721-43.657-10.069l-12.083 16.111c13.346 17.271 21.606 38.707 21.606 62.225 0 56.525-45.875 102.4-102.4 102.4-28.706 0-54.545-11.878-73.148-30.891l-30.345 20.241c0.375 3.516 1.058 7.031 1.058 10.684 0 56.525-45.875 102.4-102.4 102.4s-102.4-45.841-102.4-102.4c0-3.618 0.717-7.168 1.058-10.684l-30.345-20.241c-18.534 19.012-44.407 30.891-73.079 30.891-56.559 0-102.4-45.875-102.4-102.4 0-23.518 8.26-44.954 21.606-62.225l-12.083-16.111c-13.244 6.349-27.989 10.069-43.657 10.069-56.559 0-102.4-45.875-102.4-102.4 0-56.559 45.841-102.4 102.4-102.4 0 0 4.54 0.614 34.133 0 65.877-1.399 136.533 68.267 136.533 68.267s-17.988-62.191-68.267-102.4c-0.546-0.478-1.365-0.819-1.946-1.229 33.519-22.016 73.353-54.75 104.346-101.205 71.066-106.598 102.4-273.067 102.4-273.067h68.267c0 0 32.017 166.878 102.4 273.067 30.549 46.114 70.656 78.95 104.482 101.103-0.614 0.478-1.468 0.819-2.082 1.331-50.278 40.209-68.267 102.4-68.267 102.4s70.656-69.666 136.533-68.267c29.594 0.614 34.133 0 34.133 0 56.525 0 102.4 45.841 102.4 102.4 0 56.525-45.875 102.4-102.4 102.4z" />
<glyph unicode="&#xe668;" d="M989.867 648.601v-34.133c0-147.251-116.599-267.332-262.485-272.862-3.516-0.137 10.718-0.205-10.581-0.205h-102.4l-34.133 68.267-52.258-102.4-50.142 102.4-34.133-68.267h-136.533c-11.571 0-19.183-0.99-22.972-1.741-30.549-5.769-45.295-33.109-45.295-66.526v-34.133h34.133v-68.267h-34.133v-238.933h-68.267v238.933h-68.267v-238.933h-68.267v238.933h-34.133v68.267h34.133v33.621c0 146.944 111.787 266.752 251.665 272.316 3.379 0.137 21.402 1.604 21.402 1.229h409.6c12.186 1.092 8.26 0.444 12.186 1.092 31.881 5.803 56.081 33.69 56.081 67.209v34.133c-9.523 0-20.548 0-34.133 0v68.233h34.133v238.967h68.267v-238.967h68.267v238.967h68.267v-238.967h34.133v-68.233h-34.133zM921.6 648.601h-68.267c-0.205 0-0.41 0-0.614 0v-33.86c0-68.983-60.211-136.329-126.771-136.329-5.632 0 0 0-9.182-0.478h-409.566c0-0.614-11.571-0.239-17.237-0.717-105.062-8.772-187.563-96.768-187.563-204.083v-34.133h68.267v34.133c0 69.666 52.19 127.147 119.603 135.475 5.564 0.683 5.564 1.058 16.93 1.058h409.6c0 0.649-5.734 0 0 0 111.991 0 204.8 86.323 204.8 205.073v33.86z" />
<glyph unicode="&#xe669;" d="M0-68.267v1023.966h1024v-1023.966h-1024zM955.733 887.466h-887.467v-136.533h887.467v136.533zM955.733 682.666h-887.467v-682.701h887.467v682.701zM136.533 853.333c18.842 0 34.133-15.292 34.133-34.167 0-18.807-15.292-34.099-34.133-34.099-18.876 0-34.133 15.292-34.133 34.099 0 18.876 15.258 34.167 34.133 34.167zM238.933 853.333c18.842 0 34.133-15.292 34.133-34.167 0-18.807-15.292-34.099-34.133-34.099-18.876 0-34.133 15.292-34.133 34.099 0 18.876 15.258 34.167 34.133 34.167zM341.333 853.333c18.842 0 34.133-15.292 34.133-34.167 0-18.807-15.292-34.099-34.133-34.099-18.876 0-34.133 15.292-34.133 34.099 0 18.876 15.258 34.167 34.133 34.167z" />
<glyph unicode="&#xe66a;" d="M956.655-16.555l-0.512-0.512v-50.517h-50.517l-0.546-0.512-85.811 85.811-84.719-85.811h-34.27l-85.811 85.811-84.719-85.811h-34.27l-85.811 85.811-84.719-85.811h-34.27l-85.811 85.811-84.992-85.299h-51.2v648.533h307.2v375.467h273.067v-375.467h307.2v-596.992l0.512-0.512zM580.676 888.149h-136.533v-307.2h136.533v307.2zM887.876 512.682h-750.933v-136.567h750.933v136.567zM887.876 307.882h-750.933v-256.273l50.927 51.951 34.236 0.034 85.845-85.811 84.719 85.777 34.236 0.034 85.845-85.811 84.719 85.777 34.236 0.034 85.845-85.811 84.719 85.777 34.236 0.034 51.371-51.371v255.659z" />
<glyph unicode="&#xe66b;" d="M1023.932 375.876v-68.267h-138.103c-5.393-70.997-27.682-136.67-61.952-192.785l131.243-131.209-50.893-50.927-123.665 123.665c-68.13-76.459-163.089-124.211-268.595-124.211-105.335 0-200.397 47.479-268.595 123.665l-124.245-124.211-51.473 51.473 131.755 131.721c-34.236 56.013-55.194 121.924-60.587 192.785h-138.889v68.267h137.967c6.758 88.644 39.492 169.199 89.839 232.755l-125.952 125.918 51.473 51.473 124.996-124.996c24.166 21.026 50.347 39.492 78.848 53.589-9.933 21.641-15.838 45.5-15.838 70.861 0 94.276 76.39 170.667 170.667 170.667s170.667-76.39 170.667-170.667c0-25.361-5.905-49.22-15.838-70.861 28.638-14.165 55.125-32.461 79.292-53.658l124.006 123.972 50.893-50.893-125.645-125.713c50.074-63.556 82.978-143.77 89.737-232.414h138.889zM204.732 341.743c0-175.65 119.501-320.273 273.067-339.149v678.229c-153.566-18.91-273.067-163.43-273.067-339.081zM511.932 887.842c-56.559 0-102.4-45.841-102.4-102.4 0-19.012 5.154-30.447 14.199-45.67 0.956-1.638 1.331-5.598 3.004-4.745 24.747 13.039 49.664 16.282 85.197 16.282 35.43 0 71.987-6.519 87.177-15.462 1.536-0.887 1.98 3.004 2.867 4.54 9.216 15.36 12.356 35.499 12.356 45.056 0 56.559-45.841 102.4-102.4 102.4zM546.065 680.823v-678.229c153.566 18.876 273.067 163.465 273.067 339.149 0 175.65-119.501 320.171-273.067 339.081z" />
<glyph unicode="&#xe66c;" d="M-0.034-68.267v68.267h204.8v955.733h614.4v-955.733h204.8v-68.267h-1024zM750.899 887.466h-477.867v-887.467h204.8v136.533h68.267v-136.533h204.8v887.467zM682.633 716.8h-102.4v102.4h102.4v-102.4zM682.633 546.099h-102.4v102.434h102.4v-102.434zM682.633 375.466h-102.4v102.4h102.4v-102.4zM682.633 204.8h-102.4v102.4h102.4v-102.4zM341.299 307.2h102.4v-102.4h-102.4v102.4zM341.299 477.866h102.4v-102.4h-102.4v102.4zM341.299 648.533h102.4v-102.4h-102.4v102.4zM341.299 819.2h102.4v-102.4h-102.4v102.4z" />
<glyph unicode="&#xe66d;" d="M-0.034-68.267v887.467h273.067v136.533h477.867v-136.533h273.067v-887.467h-1024zM273.033 750.899h-204.8v-750.899h204.8v750.899zM682.633 887.466h-341.333v-887.467h341.333v887.467zM955.699 750.899h-204.8v-750.899h204.8v750.899zM887.433 614.4h-68.267v68.267h68.267v-68.267zM887.433 477.866h-68.267v68.233h68.267v-68.233zM887.433 341.333h-68.267v68.267h68.267v-68.267zM887.433 204.8h-68.267v68.267h68.267v-68.267zM887.433 68.3h-68.267v68.233h68.267v-68.233zM477.833 750.899h-68.267v68.301h68.267v-68.301zM477.833 614.4h-68.267v68.267h68.267v-68.267zM477.833 477.866h-68.267v68.233h68.267v-68.233zM477.833 341.333h-68.267v68.267h68.267v-68.267zM477.833 204.8h-68.267v68.267h68.267v-68.267zM477.833 68.3h-68.267v68.233h68.267v-68.233zM614.366 750.899h-68.267v68.301h68.267v-68.301zM614.366 614.4h-68.267v68.267h68.267v-68.267zM614.366 477.866h-68.267v68.233h68.267v-68.233zM614.366 341.333h-68.267v68.267h68.267v-68.267zM614.366 204.8h-68.267v68.267h68.267v-68.267zM614.366 68.3h-68.267v68.233h68.267v-68.233zM204.766 614.4h-68.267v68.267h68.267v-68.267zM204.766 477.866h-68.267v68.233h68.267v-68.233zM204.766 341.333h-68.267v68.267h68.267v-68.267zM204.766 204.8h-68.267v68.267h68.267v-68.267zM204.766 68.3h-68.267v68.233h68.267v-68.233z" />
<glyph unicode="&#xe66e;" d="M103.083 273.169c-2.15 0.034 1.092-5.291 1.126-7.407 3.413-185.003 154.487-333.926 340.412-333.926h136.158c185.89 0 336.998 148.924 340.412 333.858 0.068 2.15 3.277 7.509 1.126 7.475-134.042-0.478-623.787-0.649-819.234 0zM582.656 0.136h-140.015c-130.458 0-232.311 87.074-263.441 204.766h665.907c-31.13-117.726-131.959-204.766-262.451-204.766zM546.816 477.969h375.467v68.267h-375.467v-68.267zM922.283 614.536c-2.15 0 0 4.267-0.068 6.383-3.413 185.583-154.863 334.95-341.265 334.95h-136.533c-186.368 0-337.818-149.367-341.299-334.916-0.034-2.15-2.185-6.417-0.034-6.417 415.198-0.41 682.018-0.239 819.2 0zM444.416 887.569h136.533c127.215 0 233.813-87.074 264.158-204.8h-664.849c30.345 117.726 136.943 204.8 264.158 204.8zM0.683 409.736v-68.301h1024v68.301h-1024zM103.083 477.969h375.467v68.267h-375.467v-68.267zM376.149 819.302c-18.842 0-34.133-15.292-34.133-34.133s15.292-34.133 34.133-34.133 34.133 15.292 34.133 34.133-15.292 34.133-34.133 34.133zM512.683 853.435c-18.842 0-34.133-15.258-34.133-34.133 0-18.842 15.292-34.133 34.133-34.133 18.876 0 34.133 15.292 34.133 34.133 0 18.876-15.292 34.133-34.133 34.133zM649.216 819.302c-18.876 0-34.133-15.292-34.133-34.133s15.258-34.133 34.133-34.133 34.133 15.292 34.133 34.133-15.292 34.133-34.133 34.133z" />
<glyph unicode="&#xe66f;" d="M956.416 68.232v-136.533h-204.8v136.533h-477.867v-136.533h-204.8v136.533h-68.267v887.501h1024v-887.501h-68.267zM819.883-0.034h68.267v68.267h-68.267v-68.267zM137.216-0.034h68.267v68.267h-68.267v-68.267zM956.416 887.466h-887.467v-204.8h887.467v204.8zM956.416 614.4h-887.467v-273.067h887.467v273.067zM956.416 273.066h-887.467v-136.533h887.467v136.533zM888.149 204.8c0-37.683-30.583-68.267-68.267-68.267s-68.267 30.583-68.267 68.267 30.583 68.267 68.267 68.267 68.267-30.583 68.267-68.267zM273.749 204.8c0-37.683-30.583-68.267-68.267-68.267s-68.267 30.583-68.267 68.267 30.583 68.267 68.267 68.267 68.267-30.583 68.267-68.267zM615.083 750.933h-204.8v68.267h204.8v-68.267z" />
<glyph unicode="&#xe670;" d="M990.549 409.736c0-263.885-213.948-477.901-477.867-477.901s-477.867 214.016-477.867 477.901c0 91.716 26.078 177.118 70.997 249.754l31.403 125.713c-5.12 30.31 1.092 55.228 16.247 64.819 21.504 13.653 56.866-8.158 84.617-49.63 60.245 42.428 130.628 71.202 206.848 82.125-0.102 1.741-0.512 3.345-0.512 5.052 0 37.683 30.583 68.267 68.267 68.267s68.267-30.583 68.267-68.267c0-1.809-0.41-3.55-0.546-5.359 231.731-32.973 410.146-231.629 410.146-472.474zM781.414 101.103c86.153 75.127 140.868 185.378 140.868 308.634 0 7.612-0.546 15.053-0.922 22.562-3.584-37.376-12.288-82.5-33.212-124.996-31.198-63.317-98.202-111.787-147.149-140.663 21.743-21.743 34.202-44.749 40.414-65.536zM241.22 715.537c-20.651 21.231-20.651 21.231-35.738 35.533-13.687 12.937-26.419-28.331-34.133-68.267-8.841-45.739-25.566-84.753-33.997-109.329-21.914-50.176-34.27-105.472-34.27-163.738 0-226.236 183.398-409.634 409.6-409.634 74.889 0 144.862 20.48 205.278 55.569-5.325 44.169-27.273 100.727-102.878 115.098-238.729 45.466-279.723 169.984-273.067 238.967 7.543 77.824 84.002 116.497-34.133 238.933-47.275 48.947-62.43 63.078-66.662 66.867-2.287-2.082 2.253 2.116 0 0zM547.874 817.425c-0.41 0.034-0.751 0.137-1.126 0.171 0 0.58 0.444 1.263 0.068 1.741-12.8 16.35-15.258 68.267-34.133 68.267s-16.009-29.525-34.133-68.267c-0.239-0.546 0.068-1.126 0.068-1.673-73.045-6.076-140.425-31.505-197.53-70.861 21.641-21.094 52.19-52.053 95.061-98.133 138.718-149.163 16.35-186.402 34.133-273.067 11.469-56.081 65.058-117.589 170.667-136.533 32.836-5.905 60.177-14.063 83.524-23.552 33.621 25.6 102.81 94.174-15.258 160.085-154.317 86.153-161.621 194.082-102.4 273.067 26.658 35.567 33.519 55.091 34.133 68.267 1.707 37.547-27.921 91.443-33.075 100.489zM627.746 802.406c11.742-18.193 26.624-49.425 21.47-85.47-4.881-34.133-62.362-110.319-68.267-136.567-29.321-130.048 107.281-120.969 170.667-204.766 29.15-38.571 36.932-72.841 33.86-101.82 10.923 9.933 22.289 20.719 34.406 33.519 65.604 69.359 68.506 231.049 68.335 266.001-48.196 110.148-143.531 194.935-260.471 229.103z" />
<glyph unicode="&#xe671;" d="M136.533-68.267v1024h750.933v-1024h-750.933zM477.867 887.466h-273.067v-477.867h273.067v477.867zM819.2 887.466h-273.067v-477.867h273.067v477.867zM819.2 341.333h-614.4v-136.533h614.4v136.533zM819.2 136.499h-614.4v-136.499h614.4v136.499zM665.6 682.666c28.262 0 51.2-22.903 51.2-51.234 0-28.262-22.938-51.166-51.2-51.166s-51.2 22.903-51.2 51.166c0 28.331 22.938 51.234 51.2 51.234zM358.4 682.666c28.297 0 51.2-22.903 51.2-51.234 0-28.262-22.903-51.166-51.2-51.166s-51.2 22.903-51.2 51.166c0 28.331 22.903 51.234 51.2 51.234z" />
<glyph unicode="&#xe672;" d="M887.467 682.666c-75.401 0-136.533-61.167-136.533-136.533v-170.667h-68.267v409.6c0 94.276-76.39 170.667-170.667 170.667s-170.667-76.39-170.667-170.667v-273.101h-68.267v170.701c0 75.366-61.133 136.499-136.533 136.499s-136.533-61.133-136.533-136.499v-307.2c0-28.297 8.602-54.579 23.313-76.322 24.542-36.352 66.082-60.245 113.22-60.245h204.8v-307.166h68.267v375.467h-273.067c-37.683 0-68.267 30.583-68.267 68.267v307.2c0 37.683 30.583 68.267 68.267 68.267s68.267-30.583 68.267-68.267v-238.967h204.8v341.367c0 56.559 45.841 102.4 102.4 102.4 56.525 0 102.4-45.841 102.4-102.4v-477.867h204.8v238.933c0 37.683 30.583 68.233 68.267 68.233s68.267-30.549 68.267-68.233v-307.234c0-37.683-30.583-68.267-68.267-68.267h-273.067v-238.899h68.267v170.667h204.8c75.401 0 136.533 61.099 136.533 136.499v307.234c0 75.366-61.133 136.533-136.533 136.533z" />
<glyph unicode="&#xe673;" d="M0.683-68.165v443.767l477.867 580.267 546.133-238.933v-443.767l-1024-341.333zM508.075 874.666l-387.379-452.676 815.411 265.387-428.032 187.29zM68.949 330.069v-96.29c27.136-18.91 61.645-32.939 102.4-28.877 79.087 7.987 74.138 89.668 238.933 170.701 161.143 79.189 206.916-6.895 307.2 0 129.946 8.875 201.899 104.789 238.933 180.531v69.734l-887.467-295.799zM717.483 307.336c-90.351-7.851-168.414 84.070-307.2 0-46.729-28.331-74.069-54.306-121.617-102.434-84.207-85.163-165.205-74.035-219.75-48.265v-133.769l887.467 295.799v126.020c-46.967-63.351-122.231-127.215-238.899-137.353z" />
<glyph unicode="&#xe674;" d="M102.4-68.267v1024.034h819.2v-1024.034h-819.2zM853.333 887.466h-682.667v-136.499h682.667v136.499zM853.333 682.7h-682.667v-682.633h682.667v682.633zM307.2 546.167h68.267v-68.267h-136.533v136.533h68.267v-68.267zM307.2 341.367h68.267v-68.267h-136.533v136.533h68.267v-68.267zM307.2 136.567h68.267v-68.301h-136.533v136.533h68.267v-68.233zM512 546.167h68.267v-68.267h-136.533v136.533h68.267v-68.267zM512 341.367h68.267v-68.267h-136.533v136.533h68.267v-68.267zM512 136.567h68.267v-68.301h-136.533v136.533h68.267v-68.233zM716.8 546.167h68.267v-68.267h-136.533v136.533h68.267v-68.267zM716.8 136.567h68.267v-68.301h-136.533v341.367h68.267v-273.067z" />
<glyph unicode="&#xe675;" d="M0-68.267v887.398h170.667v136.567h68.267v-136.567h136.533v136.567h68.267v-136.567h136.533v136.567h68.267v-136.567h136.533v136.567h68.267v-136.567h170.667v-887.398h-1024zM955.733 750.899h-887.467v-204.8h887.467v204.8zM955.733 477.832h-887.467v-477.867h887.467v477.867zM443.733 375.432v-273.033h-68.267v204.766h-34.133v68.267h102.4zM682.667 307.166l-68.267-204.766h-68.267l68.267 204.766h-102.4v68.267h170.667v-68.267z" />
<glyph unicode="&#xe676;" d="M-0.034 0v887.467h273.067v-136.533h750.933v-750.933h-1024zM204.766 819.2h-136.533v-68.267h136.533v68.267zM955.699 682.666h-887.467v-409.6h92.16c-14.882 31.13-23.893 65.604-23.893 102.4 0 131.925 106.974 238.933 238.933 238.933s238.933-107.008 238.933-238.933c0-36.796-9.011-71.27-23.859-102.4h365.193v409.6zM546.099 375.466c0 94.242-76.425 170.667-170.667 170.667s-170.667-76.425-170.667-170.667c0-94.276 76.425-170.667 170.667-170.667s170.667 76.39 170.667 170.667zM955.699 204.8h-413.389c-43.076-42.121-101.854-68.198-166.878-68.198s-123.802 26.078-166.878 68.198h-140.322v-136.533h887.467v136.533zM887.433 546.133h-136.533v68.267h136.533v-68.267z" />
<glyph unicode="&#xe677;" d="M511.932-68.199c-282.761 0-512 229.205-512 512 0 282.761 229.239 512 512 512s512-229.239 512-512c0-282.795-229.239-512-512-512zM905.182 239.001h-430.251l132.949-228.284c129.502 28.604 237.5 113.869 297.301 228.284zM356.693 442.060l78.507-134.793 145.34 0.137 86.63 138.138-78.507 134.758-145.34-0.102-86.63-138.138zM511.932 0.068c6.451 0 12.732 0.683 19.149 0.922l-217.088 372.873-137.762-219.682c81.34-94.242 201.421-154.112 335.701-154.112zM68.198 443.767c0-83.183 23.313-160.7 63.113-227.26l142.234 226.782-0.205 0.375 0.649 0.341 85.47 136.294h-269.414c-13.961-43.008-21.845-88.815-21.845-136.533zM118.682 648.567h430.251l-132.949 228.284c-129.468-28.604-237.5-113.835-297.301-228.284zM511.932 887.5c-6.451 0-12.766-0.717-19.149-0.956l217.088-372.873 137.762 219.716c-81.34 94.242-201.421 154.112-335.701 154.112zM892.518 671.027l-142.199-226.782 0.205-0.341-0.649-0.375-85.47-136.294h269.414c13.926 43.076 21.845 88.815 21.845 136.533 0 83.183-23.313 160.734-63.147 227.26z" />
<glyph unicode="&#xe678;" d="M-0.034 68.266v614.4h273.067l68.267 136.567h341.333l68.267-136.567h273.067v-614.4h-1024zM955.699 614.4h-238.933l-68.267 136.533h-273.067l-68.267-136.533h-238.933v-477.867h887.467v477.867zM511.966 580.266c94.276 0 170.667-76.425 170.667-170.667 0-94.276-76.39-170.667-170.667-170.667s-170.667 76.39-170.667 170.667c0 94.242 76.39 170.667 170.667 170.667zM511.966 307.2c56.525 0 102.4 45.807 102.4 102.4 0 56.525-45.875 102.4-102.4 102.4-56.559 0-102.4-45.841-102.4-102.4 0-56.593 45.841-102.4 102.4-102.4z" />
<glyph unicode="&#xe679;" d="M478.549 750.933c-2.014 89.327-68.267 204.766-68.267 204.766s-68.267-115.712-68.267-204.766c0-89.395 68.267-102.4 68.267-102.4s70.383 7.646 68.267 102.4zM888.149 273.066c-75.401 0-136.533-61.133-136.533-136.533h-204.8v512h-273.067v-512h-273.067l136.533-204.8h546.133l88.883 133.359c24.064-38.912 66.765-65.092 115.917-65.092 75.401 0 136.533 61.133 136.533 136.533s-61.133 136.533-136.533 136.533zM342.016 580.266h136.533v-443.733h-136.533v443.733zM646.007 0h-474.658l-46.933 68.267h570.675l-49.084-68.267zM888.149 68.266c-37.683 0-68.267 30.583-68.267 68.267s30.583 68.267 68.267 68.267 68.267-30.583 68.267-68.267-30.583-68.267-68.267-68.267z" />
</font>
</defs>
</svg>
